<?xml version="1.0" standalone="no"?>
<!DOCTYPE svg PUBLIC "-//W3C//DTD SVG 1.1//EN" "http://www.w3.org/Graphics/SVG/1.1/DTD/svg11.dtd" >
<svg xmlns="http://www.w3.org/2000/svg">
<metadata>
<json>
<![CDATA[
{
	"fontFamily": "iconfont",
	"fontURL": "http://themewinter.com",
	"designer": "themewinter",
	"license": "CO",
	"description": "Copy prohibited\nFont generated by IcoMoon.",
	"copyright": "CO",
	"majorVersion": 0,
	"version": "Version 1.0",
	"fontId": "iconfont",
	"psName": "iconfont",
	"subFamily": "Regular",
	"fullName": "iconfont"
}
]]>
</json>
</metadata>
<defs>
<font id="iconfont" horiz-adv-x="1024">
<font-face units-per-em="1024" ascent="960" descent="-64" />
<missing-glyph horiz-adv-x="1024" />
<glyph unicode="&#x20;" horiz-adv-x="512" d="" />
<glyph unicode="&#xe900;" glyph-name="four-column" data-tags="four-column" d="M0 960h215.579v-215.579h-215.579v215.579zM0 690.526h215.579v-215.579h-215.579v215.579zM0 421.053h215.579v-215.579h-215.579v215.579zM0 151.579h215.579v-215.579h-215.579v215.579zM269.474 960h215.579v-215.579h-215.579v215.579zM269.474 690.526h215.579v-215.579h-215.579v215.579zM269.474 421.053h215.579v-215.579h-215.579v215.579zM269.474 151.579h215.579v-215.579h-215.579v215.579zM538.947 960h215.579v-215.579h-215.579v215.579zM538.947 690.526h215.579v-215.579h-215.579v215.579zM538.947 421.053h215.579v-215.579h-215.579v215.579zM538.947 151.579h215.579v-215.579h-215.579v215.579zM808.421 960h215.579v-215.579h-215.579v215.579zM808.421 690.526h215.579v-215.579h-215.579v215.579zM808.421 421.053h215.579v-215.579h-215.579v215.579zM808.421 151.579h215.579v-215.579h-215.579v215.579z" />
<glyph unicode="&#xe901;" glyph-name="one-column" data-tags="one-column" d="M0 960h1024v-161.684h-1024v161.684zM0 528.842h1024v-161.684h-1024v161.684zM0 97.684h1024v-161.684h-1024v161.684z" />
<glyph unicode="&#xe902;" glyph-name="three-column" data-tags="three-column" d="M0 960h269.474v-269.474h-269.474v269.474zM0 582.737h269.474v-269.474h-269.474v269.474zM0 205.474h269.474v-269.474h-269.474v269.474zM377.263 960h269.474v-269.474h-269.474v269.474zM377.263 582.737h269.474v-269.474h-269.474v269.474zM377.263 205.474h269.474v-269.474h-269.474v269.474zM754.526 960h269.474v-269.474h-269.474v269.474zM754.526 582.737h269.474v-269.474h-269.474v269.474zM754.526 205.474h269.474v-269.474h-269.474v269.474z" />
<glyph unicode="&#xe903;" glyph-name="two-column" data-tags="two-column" d="M0 960h431.158v-431.158h-431.158v431.158zM0 367.158h431.158v-431.158h-431.158v431.158zM592.842 960h431.158v-431.158h-431.158v431.158zM592.842 367.158h431.158v-431.158h-431.158v431.158z" />
<glyph unicode="&#xe904;" glyph-name="wallet" data-tags="wallet" horiz-adv-x="1081" d="M1024 716.527v129.707c-0.193 62.753-51.013 113.573-113.748 113.766h-796.486c-0.010 0-0.022 0-0.034 0-62.813 0-113.732-50.92-113.732-113.732 0-0.012 0-0.024 0-0.036v0.002-796.467c0-0.010 0-0.022 0-0.034 0-62.813 50.92-113.732 113.732-113.732 0.012 0 0.024 0 0.036 0h796.465c62.753 0.193 113.573 51.013 113.766 113.748v129.726c34.055 19.932 56.63 56.23 56.9 97.822v341.372c-0.27 41.63-22.845 77.928-56.363 97.57l-0.537 0.291zM967.1 618.667v-341.333h-398.199v341.333zM113.766 49.766v796.467h796.467v-113.801h-341.333c-62.768-0.174-113.607-51.001-113.8-113.748v-341.352c0.193-62.753 51.013-113.573 113.748-113.766h341.352v-113.766zM824.9 448c0-47.128-38.205-85.333-85.333-85.333s-85.333 38.205-85.333 85.333c0 47.128 38.205 85.333 85.333 85.333s85.333-38.205 85.333-85.333z" />
<glyph unicode="&#xe905;" glyph-name="wave" data-tags="wave" horiz-adv-x="1034" d="M89.6 169.6c28.8-12.8 60.8-16 89.6-16h6.4c32 0 60.8 3.2 89.6 16 48 19.2 99.2 19.2 144 0 28.8-12.8 60.8-16 89.6-16h6.4c32 0 60.8 3.2 89.6 16 48 19.2 99.2 19.2 144 0 28.8-12.8 60.8-16 89.6-16h6.4c32 0 60.8 3.2 89.6 16 22.4 9.6 48 12.8 73.6 12.8h16v92.8h-19.2c-32 0-60.8-3.2-89.6-16-48-19.2-99.2-19.2-144 0-28.8 12.8-60.8 16-89.6 16h-6.4c-32 0-60.8-3.2-89.6-16-48-19.2-99.2-19.2-144 0-25.6 12.8-57.6 19.2-89.6 19.2h-6.4c-32 0-60.8-3.2-89.6-16-48-19.2-99.2-19.2-144 0-28.8 12.8-60.8 16-89.6 16h-22.4v-92.8h16c25.6-3.2 51.2-6.4 73.6-16zM1011.2 57.6c-32 0-60.8-3.2-89.6-16-48-19.2-99.2-19.2-144 0-28.8 12.8-60.8 16-89.6 16h-6.4c-32 0-60.8-3.2-89.6-16-48-19.2-99.2-19.2-144 0-32 12.8-64 19.2-96 16h-6.4c-32 0-60.8-3.2-89.6-16-48-19.2-99.2-19.2-144 0-28.8 12.8-60.8 16-89.6 16h-22.4v-92.8h16c25.6 0 51.2-3.2 73.6-12.8 28.8-12.8 60.8-16 92.8-16h6.4c32 0 60.8 3.2 89.6 16 48 19.2 99.2 19.2 144 0 28.8-9.6 60.8-16 89.6-16h6.4c32 0 60.8 3.2 89.6 16 48 19.2 99.2 19.2 144 0 28.8-9.6 60.8-16 89.6-16h6.4c32 0 60.8 3.2 89.6 16 22.4 9.6 48 12.8 73.6 12.8h16v92.8h-16zM156.8 476.8c38.4 35.2 67.2 83.2 80 134.4 22.4 67.2 73.6 188.8 156.8 236.8 22.4 12.8 48 19.2 76.8 19.2 80-6.4 153.6-44.8 201.6-112-41.6-6.4-76.8-25.6-105.6-57.6-32-35.2-48-80-48-124.8 0-3.2 0-6.4 0-9.6 0-92.8 76.8-163.2 166.4-163.2v0c25.6 0 51.2-3.2 73.6-12.8 28.8-12.8 60.8-16 89.6-16v0h6.4c32 0 60.8 3.2 89.6 16 22.4 9.6 48 12.8 73.6 12.8h16v92.8h-16c-35.2 0-67.2-6.4-99.2-16v0c-41.6-16-89.6-16-131.2 0v0c-32 12.8-64 19.2-99.2 16-3.2 0-6.4 0-6.4 0-41.6 3.2-70.4 38.4-67.2 76.8 0 51.2 41.6 92.8 92.8 92.8h124.8l-32 67.2c-28.8 64-73.6 118.4-131.2 156.8-54.4 41.6-124.8 67.2-195.2 70.4-41.6 0-83.2-9.6-121.6-32-105.6-60.8-166.4-188.8-198.4-288-25.6-83.2-67.2-118.4-131.2-115.2h-19.2v-92.8h16c48 0 96 16 137.6 48zM788.1 620.093l82.972 41.565 44.432-88.695-82.972-41.565-44.432 88.695z" />
<glyph unicode="&#xe906;" glyph-name="bag" data-tags="bag" horiz-adv-x="836" d="M793.319 737.758v182.857c0 22.505-16.879 39.385-39.385 39.385h-118.154c-22.505 0-39.385-16.879-39.385-39.385v-56.264c-14.066 2.813-25.319 2.813-39.385 2.813h-281.319c-14.066 0-25.319 0-39.385-2.813v56.264c0 11.253-2.813 19.692-11.253 28.132-5.626 8.44-14.066 11.253-25.319 11.253h-118.154c-22.505 0-39.385-16.879-39.385-39.385v-182.857c0 0 0 0 0-2.813-28.132-42.198-42.198-92.835-42.198-146.286v-489.495c0-90.022 73.143-163.165 163.165-163.165h509.187c90.022 0 163.165 73.143 163.165 163.165v489.495c0 53.451-14.066 104.088-42.198 149.099zM120.967 712.44c36.571 47.824 95.648 75.956 157.538 75.956h281.319c61.89 0 118.154-28.132 157.538-75.956h-596.396zM677.978 841.846v39.385h36.571v-61.89c-11.253 8.44-25.319 14.066-36.571 22.505zM120.967 819.341v61.89h36.571v-39.385c-11.253-8.44-22.505-14.066-36.571-22.505zM756.747 588.659v-489.495c0-45.011-36.571-84.396-84.396-84.396h-509.187c-45.011 0-84.396 36.571-84.396 84.396v489.495c0 14.066 2.813 28.132 5.626 42.198h666.725c5.626-14.066 5.626-28.132 5.626-42.198zM663.912 442.374h-481.055c0 0 0 0 0 0-11.253 0-19.692-2.813-28.132-11.253s-11.253-16.879-11.253-28.132v-298.198c0-22.505 16.879-39.385 39.385-39.385h481.055c22.505 0 39.385 16.879 39.385 39.385v298.198c0 22.505-16.879 39.385-39.385 39.385zM222.242 141.363v219.429h399.473v-219.429h-399.473z" />
<glyph unicode="&#xe907;" glyph-name="eye-ware" data-tags="eye-ware" horiz-adv-x="1299" d="M1295.164 274.955l-107.038 506.648c-21.408 103.47-114.174 174.829-217.645 178.397-28.544 0-53.519-24.976-53.519-53.519s24.976-53.519 53.519-53.519c53.519 0 103.47-39.247 114.174-92.767l60.655-292.571c-39.247 21.408-82.063 32.111-128.446 32.111 0 0 0 0 0 0-114.174 0-214.077-64.223-256.892-167.693-67.791 39.247-149.854 39.247-217.645 0-46.383 103.47-146.286 167.693-256.892 167.693 0 0 0 0 0 0-42.815 0-89.199-10.704-128.446-32.111l57.087 292.571c10.704 53.519 60.655 92.767 114.174 92.767 28.544 0 53.519 24.976 53.519 53.519s-24.976 53.519-53.519 53.519c-103.47 0-196.237-74.927-217.645-178.397l-103.47-506.648c-32.111-153.422 67.791-303.275 221.213-331.819 17.84-3.568 39.247-7.136 57.087-7.136 132.014 0 249.756 92.767 278.3 224.78 3.568 17.84 3.568 32.111 7.136 49.951 32.111 46.383 96.334 57.087 142.718 24.976 10.704-7.136 17.84-14.272 24.976-24.976 0-74.927 32.111-142.718 85.631-196.237s124.878-82.063 196.237-82.063c0 0 3.568 0 3.568 0 156.99 0 281.868 128.446 278.3 285.436-3.568 21.408-3.568 39.247-7.136 57.087zM1191.693 217.868c0-96.334-78.495-174.829-174.829-174.829s-174.829 78.495-174.829 174.829c0 96.334 78.495 174.829 174.829 174.829 0 0 0 0 0 0 46.383 0 92.767-17.84 124.878-49.951s49.951-74.927 49.951-124.878zM460.265 217.868c0-96.334-78.495-174.829-174.829-174.829s-174.829 78.495-174.829 174.829c0 96.334 78.495 174.829 174.829 174.829 0 0 0 0 0 0 46.383 0 92.767-17.84 124.878-49.951s49.951-74.927 49.951-124.878z" />
<glyph unicode="&#xe908;" glyph-name="flippers" data-tags="flippers" d="M281.6 960c-25.6 0-48.356-5.689-68.267-14.222l-122.311-56.889c-56.889-28.444-91.022-88.178-91.022-150.756 0-8.533 5.689-59.733 22.756-258.844 8.533-82.489 17.067-184.889 28.444-315.733 2.844-65.422 56.889-116.622 119.467-119.467h105.244c65.422 2.844 116.622 54.044 122.311 119.467 17.067 201.956 31.289 332.8 36.978 420.978 14.222 170.667 14.222 170.667 14.222 182.044 5.689 108.089-73.956 193.422-167.822 193.422zM250.311 783.644c-22.756-2.844-39.822-22.756-39.822-45.511v-36.978l-113.778-96.711c-8.533 85.333-11.378 128-11.378 133.689 0 28.444 14.222 54.044 39.822 68.267l122.311 56.889c8.533 2.844 19.911 5.689 31.289 5.689 54.044-2.844 93.867-48.356 91.022-102.4 0-5.689-2.844-31.289-11.378-136.533v-2.844l-62.578 68.267v42.667c0 2.844 0 2.844 0 5.689-2.844 22.756-22.756 39.822-45.511 39.822zM250.311 618.667l96.711-108.089-8.533-91.022c-5.689-68.267-14.222-147.911-22.756-244.622 0-19.911-17.067-36.978-36.978-39.822h-105.244c-19.911 0-36.978 17.067-36.978 36.978-11.378 142.222-22.756 247.467-28.444 327.111l142.222 119.467zM932.978 777.956l-122.311 56.889c-19.911 11.378-42.667 17.067-65.422 17.067-96.711 0-173.511-85.333-173.511-193.422 0-8.533 0-8.533 14.222-167.822 8.533-88.178 19.911-221.867 39.822-432.356 2.844-65.422 54.044-116.622 122.311-119.467h105.244c65.422 2.844 116.622 54.044 119.467 119.467 17.067 173.511 28.444 292.978 36.978 375.467 17.067 173.511 17.067 187.733 17.067 196.267 0 62.578-36.978 119.467-93.867 147.911zM768 672.711c-22.756-2.844-39.822-22.756-39.822-45.511v-39.822l-62.578-68.267c-11.378 113.778-11.378 133.689-11.378 139.378-2.844 54.044 36.978 99.556 91.022 102.4 11.378 0 22.756-2.844 34.133-8.533l122.311-56.889c25.6-14.222 39.822-39.822 39.822-68.267 0-5.689-2.844-45.511-11.378-133.689l-113.778 96.711v36.978c0 2.844 0 2.844 0 5.689-5.689 25.6-25.6 42.667-48.356 39.822zM915.911 391.111c-8.533-79.644-17.067-184.889-31.289-324.267 0-19.911-17.067-36.978-36.978-36.978h-105.244c-19.911 0-36.978 17.067-36.978 39.822-8.533 108.089-17.067 193.422-22.756 267.378l-5.689 68.267 96.711 108.089 142.222-122.311z" />
<glyph unicode="&#xe909;" glyph-name="shoes" data-tags="shoes" horiz-adv-x="1311" d="M43.116 227.032h255.102v-93.418h-255.102v93.418zM1070.709 302.484h-43.116l-136.533 431.158-7.186-3.593c-82.639-43.116-165.277-79.046-237.137-50.302-61.081 32.337-104.196 89.825-122.161 158.091v3.593l-179.649 118.568-341.333-474.274-3.593-7.186 679.074-445.53h-585.656v-93.418h1218.021v122.161c0 132.94-107.789 240.73-240.73 240.73zM592.842 201.881l-459.902 301.811 89.825 125.754c53.895-79.046 129.347-143.719 211.986-186.835 140.126-82.639 161.684-183.242 158.091-240.73zM445.53 780.351c32.337-86.232 89.825-154.498 165.277-186.835 68.267-28.744 143.719-28.744 222.765 7.186l25.151-75.453-104.196-32.337 28.744-89.825 104.196 32.337 21.558-71.86-93.418-28.744 28.744-89.825 93.418 28.744 21.558-64.674h111.382c79.046 0 147.312-64.674 147.312-147.312v-28.744h-366.484l-172.463 111.382c39.523 161.684-68.267 305.404-194.021 377.263-132.94 79.046-183.242 150.905-201.207 190.428l82.639 118.568 79.046-50.302z" />
<glyph unicode="&#xe90a;" glyph-name="shorts" data-tags="shorts" horiz-adv-x="1047" d="M652.493-63.966c-28.082 0.128-51.117 21.563-53.777 48.964l-0.017 0.222-59.46 379.529c-0.674 8.161-7.459 14.531-15.735 14.541h-0.001c-8.266-0.073-15.032-6.401-15.799-14.476l-0.005-0.064v-1.092l-59.255-378.402c-2.691-27.604-25.699-49.024-53.744-49.186h-301.004c-0.031 0-0.069 0-0.106 0-29.001 0-52.643 22.95-53.753 51.679l-0.003 0.101-39.595 655.155c-0.047 1.361-0.074 2.96-0.074 4.566 0 38.142 15.082 72.761 39.608 98.22l-0.042-0.044v160.427c0.058 29.767 24.193 53.877 53.963 53.897h859.786c0.010 0 0.022 0 0.034 0 29.773 0 53.911-24.126 53.931-53.895v-160.429c24.499-25.128 39.61-59.509 39.61-97.42 0-2.016-0.043-4.021-0.127-6.016l0.010 0.285-39.492-654.78c-1.15-28.838-24.807-51.78-53.822-51.78-0.050 0-0.1 0-0.15 0h0.008zM646.793 373.828l54.613-329.83h200.67l26.112 335.292h-17.749c-77.251 0.097-139.85 62.695-139.947 139.937v0.009c0.078 29.764 24.224 53.862 53.999 53.862 0.024 0 0.048 0 0.072 0h-0.004c29.753-0.019 53.872-24.114 53.931-53.857v-0.006c0-0.010 0-0.022 0-0.034 0-17.684 14.307-32.027 31.977-32.085h22.432l6.212 159.846c0.015 0.363 0.023 0.789 0.023 1.217 0 8.6-3.405 16.405-8.941 22.139l0.009-0.009c-5.833 6.047-13.991 9.817-23.031 9.864h-767.224c-9.063-0.025-17.24-3.8-23.064-9.854l-0.010-0.010c-5.488-5.712-8.867-13.486-8.867-22.049 0-0.457 0.010-0.911 0.029-1.363l-0.002 0.065 6.076-159.846h22.426c17.695 0.058 32.017 14.416 32.017 32.119 0 0 0 0 0 0v0c0.058 29.76 24.197 53.862 53.965 53.862 0 0 0 0 0 0v0c0 0 0 0 0 0 29.768 0 53.906-24.103 53.965-53.857v-0.006c0-77.29-62.656-139.947-139.947-139.947v0h-17.681l26.18-335.292h200.602l54.613 329.83c5.812 63.59 58.749 113.053 123.296 113.323h0.027c64.561-0.276 117.477-49.765 123.186-112.876l0.035-0.481zM147.558 788.139h751.821v64.034h-751.821z" />
<glyph unicode="&#xe90b;" glyph-name="quote_icon" data-tags="quote_icon" horiz-adv-x="1365" d="M0 960v-1024l512 512v512zM853.333 960v-1024l512 512v512z" />
<glyph unicode="&#xe90c;" glyph-name="arrow-left" data-tags="arrow-left" d="M810.667 490.667h-494.933l226.133 226.133c17.067 17.067 17.067 42.667 0 59.733s-42.667 17.067-59.733 0l-294.4-294.4c-8.533-8.533-17.067-17.067-17.067-34.133s8.533-25.6 17.067-34.133l294.4-294.4c8.533-8.533 17.067-12.8 29.867-12.8s21.333 4.267 29.867 12.8c17.067 17.067 17.067 42.667 0 59.733l-226.133 226.133h494.933c25.6 0 42.667 17.067 42.667 42.667s-17.067 42.667-42.667 42.667z" />
<glyph unicode="&#xe90d;" glyph-name="arrow-right" data-tags="arrow-right" d="M853.333 448c0 17.067-8.533 25.6-17.067 34.133l-294.4 294.4c-17.067 17.067-42.667 17.067-59.733 0s-17.067-42.667 0-59.733l226.133-226.133h-494.933c-25.6 0-42.667-17.067-42.667-42.667s17.067-42.667 42.667-42.667h494.933l-226.133-226.133c-17.067-17.067-17.067-42.667 0-59.733 8.533-8.533 17.067-12.8 29.867-12.8s21.333 4.267 29.867 12.8l294.4 294.4c8.533 8.533 17.067 17.067 17.067 34.133z" />
<glyph unicode="&#xe90e;" glyph-name="author" data-tags="author" d="M682.667 362.667h-341.333c-119.467 0-213.333-93.867-213.333-213.333v-85.333c0-25.6 17.067-42.667 42.667-42.667s42.667 17.067 42.667 42.667v85.333c0 72.533 55.467 128 128 128h341.333c72.533 0 128-55.467 128-128v-85.333c0-25.6 17.067-42.667 42.667-42.667s42.667 17.067 42.667 42.667v85.333c0 119.467-93.867 213.333-213.333 213.333zM512 448c119.467 0 213.333 93.867 213.333 213.333s-93.867 213.333-213.333 213.333-213.333-93.867-213.333-213.333 93.867-213.333 213.333-213.333zM512 789.333c72.533 0 128-55.467 128-128s-55.467-128-128-128-128 55.467-128 128 55.467 128 128 128z" />
<glyph unicode="&#xe90f;" glyph-name="category" data-tags="category" d="M68.267 622.933l426.667-213.333c4.267-4.267 8.533-4.267 17.067-4.267s12.8 0 17.067 4.267l426.667 213.333c17.067 8.533 25.6 21.333 25.6 38.4s-8.533 29.867-25.6 38.4l-426.667 213.333c-12.8 4.267-25.6 4.267-38.4 0l-426.667-213.333c-12.8-8.533-21.333-21.333-21.333-38.4s8.533-29.867 25.6-38.4zM512 827.733l332.8-166.4-332.8-166.4-332.8 166.4 332.8 166.4zM921.6 273.067l-409.6-204.8-409.6 204.8c-21.333 8.533-46.933 0-55.467-17.067s0-46.933 17.067-55.467l426.667-213.333c8.533-8.533 12.8-8.533 21.333-8.533s12.8 0 17.067 4.267l426.667 213.333c21.333 8.533 29.867 34.133 17.067 55.467-8.533 21.333-34.133 29.867-51.2 21.333zM921.6 486.4l-409.6-204.8-409.6 204.8c-21.333 8.533-46.933 0-55.467-17.067-8.533-21.333 0-46.933 17.067-55.467l426.667-213.333c8.533-8.533 12.8-8.533 21.333-8.533s12.8 0 17.067 4.267l426.667 213.333c21.333 8.533 29.867 34.133 17.067 55.467-8.533 21.333-34.133 29.867-51.2 21.333z" />
<glyph unicode="&#xe910;" glyph-name="chevron-left" data-tags="chevron-left" d="M640 149.333c-12.8 0-21.333 4.267-29.867 12.8l-256 256c-17.067 17.067-17.067 42.667 0 59.733l256 256c17.067 17.067 42.667 17.067 59.733 0s17.067-42.667 0-59.733l-226.133-226.133 226.133-226.133c17.067-17.067 17.067-42.667 0-59.733-8.533-8.533-17.067-12.8-29.867-12.8z" />
<glyph unicode="&#xe911;" glyph-name="chevron-right" data-tags="chevron-right" d="M384 149.333c-12.8 0-21.333 4.267-29.867 12.8-17.067 17.067-17.067 42.667 0 59.733l226.133 226.133-226.133 226.133c-17.067 17.067-17.067 42.667 0 59.733s42.667 17.067 59.733 0l256-256c17.067-17.067 17.067-42.667 0-59.733l-256-256c-8.533-8.533-17.067-12.8-29.867-12.8z" />
<glyph unicode="&#xe912;" glyph-name="date" data-tags="date" d="M810.667 832h-85.333v42.667c0 25.6-17.067 42.667-42.667 42.667s-42.667-17.067-42.667-42.667v-42.667h-256v42.667c0 25.6-17.067 42.667-42.667 42.667s-42.667-17.067-42.667-42.667v-42.667h-85.333c-72.533 0-128-55.467-128-128v-597.333c0-72.533 55.467-128 128-128h597.333c72.533 0 128 55.467 128 128v597.333c0 72.533-55.467 128-128 128zM213.333 746.667h85.333v-42.667c0-25.6 17.067-42.667 42.667-42.667s42.667 17.067 42.667 42.667v42.667h256v-42.667c0-25.6 17.067-42.667 42.667-42.667s42.667 17.067 42.667 42.667v42.667h85.333c25.6 0 42.667-17.067 42.667-42.667v-128h-682.667v128c0 25.6 17.067 42.667 42.667 42.667zM810.667 64h-597.333c-25.6 0-42.667 17.067-42.667 42.667v384h682.667v-384c0-25.6-17.067-42.667-42.667-42.667z" />
<glyph unicode="&#xe913;" glyph-name="search" data-tags="search" d="M1006.592 38.4l-226.304 225.28c25.6 34.816 47.104 72.704 62.464 113.664 17.408 47.104 26.624 97.28 26.624 148.48 0 60.416-11.264 116.736-33.792 169.984-22.528 52.224-54.272 98.304-93.184 137.216-39.936 38.912-86.016 70.656-138.24 93.184-104.448 45.056-233.472 45.056-338.944 0-52.224-22.528-98.304-54.272-137.216-93.184s-70.656-84.992-93.184-138.24c-23.552-52.224-34.816-108.544-34.816-168.96 0-59.392 11.264-116.736 33.792-169.984 22.528-52.224 54.272-98.304 93.184-137.216s84.992-70.656 137.216-92.16c98.304-43.008 218.112-46.080 318.464-8.192 40.96 15.36 78.848 35.84 113.664 62.464l225.28-226.304c11.264-11.264 25.6-17.408 41.984-17.408s30.72 6.144 41.984 17.408c11.264 11.264 17.408 25.6 17.408 41.984 1.024 15.36-5.12 29.696-16.384 41.984zM749.568 525.824c0-43.008-8.192-83.968-24.576-121.856-16.384-38.912-38.912-72.704-67.584-101.376s-62.464-51.2-100.352-67.584c-76.8-32.768-168.96-32.768-245.76 0-37.888 16.384-71.68 38.912-100.352 67.584s-51.2 62.464-67.584 101.376c-16.384 37.888-24.576 78.848-24.576 121.856 0 44.032 8.192 84.992 24.576 122.88s38.912 71.68 67.584 100.352c28.672 28.672 62.464 51.2 100.352 67.584s79.872 24.576 122.88 24.576c43.008 0 83.968-8.192 122.88-24.576 37.888-16.384 71.68-38.912 100.352-67.584s51.2-62.464 67.584-100.352c16.384-37.888 24.576-79.872 24.576-122.88z" />
<glyph unicode="&#xe914;" glyph-name="drive" data-tags="drive" d="M910.336 960h-796.672c-62.464 0-113.664-51.2-113.664-113.664v-398.336c0-62.464 51.2-113.664 113.664-113.664h796.672c62.464 0 113.664 51.2 113.664 113.664v398.336c0 62.464-51.2 113.664-113.664 113.664zM910.336 619.008h-227.328c0-94.208-76.8-171.008-171.008-171.008s-171.008 76.8-171.008 171.008h-227.328v227.328h796.672v-227.328zM683.008 220.672h340.992v-171.008c0-62.464-51.2-113.664-113.664-113.664h-796.672c-62.464 0-113.664 51.2-113.664 113.664v171.008h340.992c0-94.208 76.8-171.008 171.008-171.008s171.008 76.8 171.008 171.008z" />
<glyph unicode="&#xe915;" glyph-name="eye" data-tags="eye" horiz-adv-x="1365" d="M682.667-64c-428.715 0-666.283 466.944-677.205 486.059-8.192 16.384-8.192 35.499 0 50.517 10.923 20.48 248.491 487.424 677.205 487.424s666.283-466.944 677.205-486.059c8.192-16.384 8.192-35.499 0-50.517-10.923-20.48-248.491-487.424-677.205-487.424zM121.515 448c53.248-91.477 255.317-398.677 561.152-398.677s507.904 307.2 561.152 398.677c-53.248 91.477-255.317 398.677-561.152 398.677s-507.904-307.2-561.152-398.677zM682.667 219.989c-125.611 0-228.011 102.4-228.011 228.011s102.4 228.011 228.011 228.011 228.011-102.4 228.011-228.011-102.4-228.011-228.011-228.011zM682.667 561.323c-62.805 0-113.323-50.517-113.323-113.323s50.517-113.323 113.323-113.323 113.323 50.517 113.323 113.323-50.517 113.323-113.323 113.323z" />
<glyph unicode="&#xe916;" glyph-name="gift" data-tags="gift" d="M884.736-64h-745.472c-25.6 0-46.080 20.48-46.080 46.080v0 465.92c0 25.6 20.48 46.080 46.080 46.080s46.080-20.48 46.080-46.080c0 0 0 0 0 0v-418.816h651.264v418.816c0 25.6 20.48 46.080 46.080 46.080s46.080-20.48 46.080-46.080v-465.92c2.048-25.6-18.432-46.080-44.032-46.080 0 0 0 0 0 0zM977.92 401.92h-931.84c-25.6 0-46.080 20.48-46.080 46.080v0 232.448c0 25.6 20.48 46.080 46.080 46.080 0 0 0 0 0 0h930.816c25.6 0 46.080-20.48 46.080-46.080v0-232.448c1.024-25.6-19.456-46.080-45.056-46.080v0zM93.184 494.080h837.632v140.288h-837.632v-140.288zM512-64c-25.6 0-46.080 20.48-46.080 46.080v0 698.368c0 25.6 20.48 46.080 46.080 46.080s46.080-20.48 46.080-46.080v-698.368c0-25.6-20.48-46.080-46.080-46.080v0zM512 634.368h-209.92c-90.112-1.024-163.84 70.656-164.864 160.768-1.024 89.088 70.656 163.84 160.768 164.864 2.048 0 3.072 0 5.12 0 198.656 0 251.904-259.072 254.976-270.336 5.12-25.6-11.264-50.176-36.864-54.272-3.072-1.024-6.144-1.024-9.216-1.024zM302.080 866.816c-38.912 0-69.632-31.744-69.632-69.632s31.744-69.632 69.632-69.632h146.432c-21.504 57.344-66.56 139.264-146.432 139.264zM721.92 634.368h-209.92c-25.6 0-46.080 20.48-46.080 46.080 0 3.072 0 6.144 1.024 9.216 2.048 11.264 55.296 270.336 254.976 270.336 90.112 1.024 163.84-70.656 164.864-160.768s-70.656-163.84-160.768-164.864c-1.024 0-3.072 0-4.096 0zM574.464 727.552h146.432c38.912 0 69.632 31.744 69.632 69.632s-31.744 69.632-69.632 69.632v0c-78.848 0-123.904-81.92-146.432-139.264v0z" />
<glyph unicode="&#xe917;" glyph-name="uniE90C" data-tags="uniE90C" d="M448.512 160.256c0-123.853-100.403-224.256-224.256-224.256s-224.256 100.403-224.256 224.256c0 123.853 100.403 224.256 224.256 224.256s224.256-100.403 224.256-224.256z" />
<glyph unicode="&#xe918;" glyph-name="uniE90D" data-tags="uniE90D" d="M1024 735.744c0-70.692-57.308-128-128-128s-128 57.308-128 128c0 70.692 57.308 128 128 128s128-57.308 128-128z" />
<glyph unicode="&#xe919;" glyph-name="uniE90E" data-tags="uniE90E" d="M836.352 159.488h-616.448c-8.192 0-14.336 6.144-14.336 14.336 0 0 0 0 0 0v386.048c-1.024 8.192 5.12 15.36 13.312 15.36 8.192 1.024 15.36-5.12 15.36-13.312 0-1.024 0-2.048 0-3.072v-370.688h587.776v371.712c-1.024 8.192 5.12 15.36 13.312 15.36s15.36-5.12 15.36-13.312c0-1.024 0-2.048 0-3.072v-386.048c0-6.144-6.144-12.288-14.336-13.312z" />
<glyph unicode="&#xe91a;" glyph-name="uniE90F" data-tags="uniE90F" d="M913.152 545.536h-771.072c-8.192 0-14.336 6.144-14.336 14.336v192.512c0 8.192 6.144 14.336 14.336 14.336 0 0 0 0 0 0h771.072c8.192 0 14.336-6.144 14.336-14.336v-192.512c1.024-8.192-6.144-14.336-14.336-14.336 0 0 0 0 0 0zM157.44 574.208h742.4v163.84h-743.424l1.024-163.84z" />
<glyph unicode="&#xe91b;" glyph-name="uniE910" data-tags="uniE910" d="M528.128 159.488c-8.192 0-14.336 6.144-14.336 14.336v578.56c1.024 8.192 8.192 13.312 15.36 13.312 7.168-1.024 12.288-6.144 13.312-13.312v-578.56c0-7.168-6.144-13.312-14.336-14.336z" />
<glyph unicode="&#xe91c;" glyph-name="uniE911" data-tags="uniE911" d="M528.128 738.048h-174.080c-61.44 0-110.592 49.152-110.592 110.592s49.152 110.592 110.592 110.592c145.408 0 186.368-195.584 187.392-204.8 2.048-8.192-3.072-15.36-11.264-17.408 0 1.024-1.024 1.024-2.048 1.024v0zM354.048 930.56c-45.056 0-81.92-36.864-81.92-81.92s36.864-81.92 81.92-81.92h154.624c-12.288 46.080-55.296 163.84-154.624 163.84z" />
<glyph unicode="&#xe91d;" glyph-name="uniE912" data-tags="uniE912" d="M701.184 738.048h-173.056c-8.192 0-14.336 6.144-14.336 14.336 0 1.024 0 2.048 0 3.072 2.048 8.192 43.008 204.8 187.392 204.8 61.44 0 110.592-50.176 110.592-110.592 0-61.44-49.152-111.616-110.592-111.616zM546.56 766.72h154.624c45.056 0 81.92 36.864 81.92 81.92s-36.864 81.92-81.92 81.92c-98.304 0-141.312-117.76-154.624-163.84v0z" />
<glyph unicode="&#xe91e;" glyph-name="heart" data-tags="heart" horiz-adv-x="1159" d="M579.584-64c-13.312 0-26.624 5.12-35.84 14.336l-447.488 447.488c-128 129.024-128 336.896 0 465.92s336.896 129.024 464.896 0l17.408-17.408 18.432 18.432c61.44 61.44 144.384 95.232 231.424 95.232v0c87.040 0 171.008-34.816 232.448-96.256v0c128-129.024 128-336.896 0-464.896l-445.44-447.488c-9.216-10.24-22.528-15.36-35.84-15.36zM328.704 858.624c-125.952 0-227.328-102.4-227.328-227.328 0-60.416 23.552-118.784 66.56-160.768l411.648-411.648 411.648 411.648c89.088 89.088 89.088 233.472 0 322.56v0c-43.008 43.008-100.352 66.56-160.768 66.56v0c-60.416 0-118.784-23.552-160.768-66.56v0l-54.272-54.272c-20.48-19.456-51.2-19.456-71.68 0l-53.248 53.248c-43.008 43.008-101.376 66.56-161.792 66.56z" />
<glyph unicode="&#xe91f;" glyph-name="law_firm" data-tags="law_firm" horiz-adv-x="975" d="M97.28 520.704h146.432v-340.992h-146.432v340.992zM414.72 520.704h146.432v-340.992h-146.432v340.992zM0 82.432h974.848v-146.432h-974.848v146.432zM731.136 520.704h146.432v-340.992h-146.432v340.992zM487.424 960l-487.424-243.712v-97.28h974.848v97.28l-487.424 243.712z" />
<glyph unicode="&#xe920;" glyph-name="layer" data-tags="layer" horiz-adv-x="1028" d="M514.056 412.016c-5.141 0-11.309 1.028-16.45 4.112l-476.016 238.522c-17.478 9.253-24.675 30.843-15.422 48.321 3.084 6.169 9.253 11.309 15.422 15.422l476.016 237.494c10.281 5.141 21.59 5.141 31.871 0l477.044-237.494c17.478-9.253 24.675-30.843 15.422-48.321-3.084-7.197-9.253-12.337-15.422-15.422l-477.044-238.522c-4.112-2.056-10.281-4.112-15.422-4.112zM117.205 686.522l396.851-198.426 395.823 198.426-395.823 198.426-396.851-198.426zM514.056-64c-5.141 0-11.309 1.028-16.45 4.112l-476.016 238.522c-17.478 10.281-22.618 31.871-13.365 49.349 9.253 15.422 28.787 21.59 45.237 15.422l460.594-230.297 460.594 230.297c18.506 7.197 39.068-1.028 47.293-19.534 7.197-16.45 1.028-35.984-15.422-45.237l-476.016-238.522c-5.141-2.056-11.309-4.112-16.45-4.112zM514.056 174.522c-5.141 0-11.309 1.028-16.45 4.112l-476.016 237.494c-18.506 7.197-26.731 28.787-19.534 47.293s28.787 26.731 47.293 19.534c1.028-1.028 3.084-1.028 4.112-2.056l460.594-230.297 460.594 230.297c17.478 10.281 39.068 4.112 49.349-13.365s4.112-39.068-13.365-49.349c-1.028-1.028-3.084-1.028-4.112-2.056l-476.016-237.494c-5.141-3.084-11.309-4.112-16.45-4.112z" />
<glyph unicode="&#xe921;" glyph-name="message1" data-tags="message" d="M972.8 755.2h-102.4v-460.8h-665.6v-102.4c0-28.672 22.528-51.2 51.2-51.2 0 0 0 0 0 0h563.2l204.8-204.8v768c0 28.672-22.528 51.2-51.2 51.2v0zM768 448v460.8c0 28.672-22.528 51.2-51.2 51.2v0h-665.6c-28.672 0-51.2-22.528-51.2-51.2v0-716.8l204.8 204.8h512c28.672 0 51.2 22.528 51.2 51.2v0z" />
<glyph unicode="&#xe922;" glyph-name="uniE917" data-tags="uniE917" horiz-adv-x="1022" d="M861.184 339.456c-39.936 5.12-77.824 14.336-115.712 28.672-49.152 18.432-104.448 6.144-141.312-30.72l-31.744-31.744c-81.92 52.224-152.576 122.88-204.8 204.8l31.744 31.744c36.864 36.864 48.128 92.16 30.72 141.312-14.336 37.888-23.552 76.8-28.672 116.736-9.216 65.536-65.536 114.688-132.096 114.688h-135.168c-4.096 0-8.192 0-12.288-1.024-73.728-6.144-128-71.68-121.856-145.408 0 0 0-1.024 0-1.024 15.36-144.384 64.512-283.648 143.36-406.528 71.68-113.664 167.936-208.896 281.6-281.6 121.856-78.848 261.12-128 405.504-144.384 4.096 0 8.192-1.024 11.264-1.024h1.024c73.728 0 133.12 60.416 133.12 134.144v133.12c2.048 70.656-47.104 129.024-114.688 138.24zM887.808 204.288v-134.144c0-12.288-4.096-23.552-13.312-31.744-9.216-10.24-21.504-14.336-34.816-13.312-130.048 14.336-256 59.392-366.592 130.048-102.4 65.536-189.44 151.552-253.952 253.952-71.68 110.592-115.712 236.544-130.048 366.592-1.024 12.288 2.048 23.552 10.24 32.768 8.192 10.24 21.504 15.36 33.792 16.384h134.144c22.528 0 40.96-16.384 44.032-37.888 6.144-46.080 17.408-91.136 33.792-135.168 6.144-16.384 2.048-34.816-10.24-47.104l-56.32-56.32c-14.336-14.336-17.408-35.84-7.168-53.248 67.584-118.784 165.888-217.088 284.672-284.672 17.408-10.24 38.912-7.168 53.248 7.168l56.32 56.32c12.288 12.288 30.72 16.384 47.104 10.24 43.008-16.384 89.088-27.648 135.168-33.792 23.552-3.072 39.936-22.528 39.936-46.080v0z" />
<glyph unicode="&#xe923;" glyph-name="uniE918" data-tags="uniE918" horiz-adv-x="1022" d="M798.72 515.584c-21.504 0-39.936 15.36-44.032 35.84-13.312 71.68-69.632 126.976-141.312 141.312-24.576 5.12-39.936 27.648-34.816 52.224s27.648 39.936 52.224 34.816c107.52-20.48 191.488-104.448 211.968-211.968 5.12-24.576-11.264-48.128-34.816-52.224-4.096 0-6.144 0-9.216 0z" />
<glyph unicode="&#xe924;" glyph-name="uniE919" data-tags="uniE919" horiz-adv-x="1022" d="M976.896 515.584c-22.528 0-41.984 17.408-44.032 39.936-17.408 165.888-149.504 296.96-315.392 315.392-24.576 1.024-44.032 22.528-41.984 47.104s22.528 44.032 47.104 41.984c2.048 0 4.096 0 5.12-1.024 207.872-22.528 371.712-186.368 394.24-394.24 3.072-24.576-15.36-46.080-39.936-49.152-2.048 1.024-3.072 0-5.12 0z" />
<glyph unicode="&#xe925;" glyph-name="power_1" data-tags="power_1" horiz-adv-x="931" d="M418.909-64c-27.927 0-46.545 18.618-46.545 46.545 0 0 0 4.655 0 4.655l41.891 321.164h-367.709c-27.927 0-46.545 18.618-46.545 46.545 0 9.309 4.655 23.273 9.309 27.927l465.455 558.545c18.618 18.618 46.545 23.273 65.164 4.655 13.964-9.309 18.618-23.273 18.618-37.236l-41.891-321.164h367.709c27.927 0 46.545-18.618 46.545-46.545 0-9.309-4.655-23.273-9.309-27.927l-465.455-558.545c-9.309-13.964-23.273-18.618-37.236-18.618zM144.291 401.455h321.164c27.927 0 46.545-18.618 46.545-46.545 0 0 0-4.655 0-4.655l-27.927-214.109 297.891 358.4h-316.509c-27.927 0-46.545 18.618-46.545 46.545 0 0 0 4.655 0 4.655l27.927 214.109-302.545-358.4z" />
<glyph unicode="&#xe926;" glyph-name="question" data-tags="question" d="M512-64c-282.624 0-512 229.376-512 512s229.376 512 512 512 512-229.376 512-512c0-282.624-229.376-512-512-512zM512 866.816c-231.424 0-418.816-187.392-418.816-418.816s187.392-418.816 418.816-418.816 418.816 187.392 418.816 418.816c0 231.424-187.392 418.816-418.816 418.816zM507.904 354.816c-25.6 0-46.080 20.48-46.080 47.104 0 20.48 13.312 37.888 31.744 44.032 27.648 9.216 107.52 47.104 107.52 95.232 0 51.2-40.96 93.184-93.184 93.184-39.936 0-74.752-24.576-88.064-62.464-9.216-24.576-35.84-36.864-59.392-27.648-23.552 8.192-35.84 34.816-27.648 58.368 33.792 97.28 140.288 147.456 237.568 113.664 74.752-26.624 123.904-97.28 123.904-176.128 0-122.88-153.6-178.176-171.008-183.296-5.12-1.024-10.24-2.048-15.36-2.048zM512 168.448c-25.6 1.024-46.080 21.504-45.056 47.104 1.024 24.576 20.48 45.056 45.056 45.056v0c25.6 0 46.080-20.48 46.080-46.080s-19.456-46.080-46.080-46.080z" />
<glyph unicode="&#xe927;" glyph-name="tags" data-tags="tags" horiz-adv-x="838" d="M744.448 168.448l93.184-46.080v744.448c0 51.2-41.984 93.184-93.184 93.184h-465.92c-51.2 0-93.184-41.984-92.16-93.184h464.896c51.2 0 93.184-41.984 93.184-93.184v-605.184zM558.080 773.632h-464.896c-51.2 0-93.184-41.984-93.184-93.184v-744.448l325.632 139.264 325.632-139.264v744.448c0 51.2-40.96 93.184-93.184 93.184z" />
<glyph unicode="&#xe928;" glyph-name="target" data-tags="target" d="M512 960c-282.624 0-512-229.376-512-512s229.376-512 512-512c282.624 0 512 229.376 512 512s-229.376 512-512 512zM512 82.432c-201.728 0-365.568 163.84-365.568 365.568s163.84 365.568 365.568 365.568c201.728 0 365.568-163.84 365.568-365.568s-163.84-365.568-365.568-365.568zM647.31 504.039c30.95-74.718-4.531-160.378-79.249-191.328s-160.378 4.531-191.328 79.249c-30.95 74.718 4.531 160.378 79.249 191.328s160.378-4.531 191.328-79.249z" />
<glyph unicode="&#xe929;" glyph-name="truck_1" data-tags="truck_1" horiz-adv-x="1229" d="M819.938 191.693h-768.307c-28.274 0-51.63 23.357-51.63 51.63v665.047c0 28.274 23.357 51.63 51.63 51.63h768.307c28.274 0 51.63-23.357 51.63-51.63v-666.276c-1.229-27.044-23.357-50.401-51.63-50.401 0 0 0 0 0 0zM102.031 293.724h666.276v564.245h-666.276v-564.245zM1177.661 191.693h-357.724c-28.274 0-51.63 23.357-51.63 51.63 0 0 0 0 0 0v409.354c0 28.274 23.357 51.63 51.63 51.63h205.292c13.522 0 27.044-4.917 35.649-14.752l153.661-153.661c9.834-9.834 14.752-22.127 14.752-35.649v-255.693c0-29.503-23.357-52.86-51.63-52.86 0 0 0 0 0 0zM870.339 293.724h255.693v184.394l-122.929 122.929h-132.764v-307.323zM281.508-64c-99.573 0-179.477 79.904-179.477 179.477s79.904 179.477 179.477 179.477 179.477-79.904 179.477-179.477c0-99.573-79.904-179.477-179.477-179.477zM281.508 191.693c-43.025 0-76.216-34.42-76.216-76.216s34.42-76.216 76.216-76.216 76.216 34.42 76.216 76.216c1.229 41.796-33.191 76.216-76.216 76.216zM947.784-64c-99.573 0-179.477 79.904-179.477 179.477s79.904 178.247 179.477 178.247 179.477-79.904 179.477-179.477c0-98.343-81.133-178.247-179.477-178.247zM947.784 191.693c-43.025 0-76.216-34.42-76.216-76.216s34.42-76.216 76.216-76.216c43.025 0 76.216 34.42 76.216 76.216s-34.42 76.216-76.216 76.216z" />
<glyph unicode="&#xe92a;" glyph-name="user1" data-tags="user" horiz-adv-x="922" d="M870.4-64c-28.672 0-51.2 22.528-51.2 51.2v102.4c0 84.992-68.608 153.6-153.6 153.6h-409.6c-84.992 0-153.6-68.608-153.6-153.6v-102.4c0-28.672-22.528-51.2-51.2-51.2s-51.2 22.528-51.2 51.2v102.4c0 141.312 114.688 256 256 256h409.6c141.312 0 256-114.688 256-256v-102.4c0-28.672-22.528-51.2-51.2-51.2v0zM460.8 448c-141.312 0-256 114.688-256 256s114.688 256 256 256 256-114.688 256-256c0-141.312-114.688-256-256-256zM460.8 857.6c-84.992 0-153.6-68.608-153.6-153.6s68.608-153.6 153.6-153.6 153.6 68.608 153.6 153.6v0c0 84.992-68.608 153.6-153.6 153.6z" />
<glyph unicode="&#xe92b;" glyph-name="swim" data-tags="swim" horiz-adv-x="1138" d="M455.104 675.552l-184.896-184.896c17.049-7.053 31.45-14.483 45.146-22.946l-1.338 0.77c16.89-12.832 38.271-20.556 61.456-20.556 1.39 0 2.773 0.028 4.149 0.083l-0.198-0.006c1.179-0.049 2.562-0.076 3.952-0.076 23.185 0 44.566 7.725 61.709 20.741l-0.253-0.184c34.262 22.835 76.376 36.438 121.667 36.438 1.090 0 2.179-0.008 3.266-0.024l-0.165 0.002c1.036 0.018 2.258 0.028 3.482 0.028 44.922 0 86.664-13.612 121.327-36.937l-0.778 0.493c17.404-12.815 39.265-20.509 62.924-20.509 0.873 0 1.744 0.010 2.613 0.031l-0.129-0.002c1.069-0.040 2.325-0.062 3.587-0.062 23.302 0 44.803 7.716 62.085 20.732l-0.264-0.19c6.816 3.968 14.784 8.544 23.328 13.088l-365.376 364.64c-88.16 88.192-169.504 114.368-311.744 113.792v-142.24c103.552 0.576 164.416-22.176 227.552-85.344zM1137.76 192v0zM190.56 248.896c0.74 0.018 1.611 0.029 2.484 0.029 23.659 0 45.52-7.694 63.219-20.716l-0.295 0.207c33.886-22.832 75.628-36.444 120.55-36.444 1.224 0 2.447 0.010 3.666 0.030l-0.184-0.002c1.036-0.018 2.258-0.028 3.482-0.028 44.922 0 86.664 13.612 121.327 36.937l-0.778-0.493c16.89 12.832 38.271 20.556 61.456 20.556 1.39 0 2.773-0.028 4.149-0.083l-0.198 0.006c0.74 0.018 1.611 0.029 2.484 0.029 23.659 0 45.52-7.694 63.219-20.716l-0.295 0.207c35.053-22.832 77.949-36.41 124.016-36.41s88.963 13.579 124.904 36.952l-0.888-0.541c16.89 12.832 38.271 20.556 61.456 20.556 1.39 0 2.773-0.028 4.149-0.083l-0.198 0.006c0.74 0.018 1.611 0.029 2.484 0.029 23.659 0 45.52-7.694 63.219-20.716l-0.295 0.207c34.051-22.823 75.953-36.424 121.032-36.424 0.672 0 1.344 0.003 2.015 0.009l-0.103-0.001v113.792c-0.74-0.018-1.611-0.029-2.484-0.029-23.659 0-45.52 7.694-63.219 20.716l0.295-0.207c-35.053 22.832-77.949 36.41-124.016 36.41s-88.963-13.579-124.904-36.952l0.888 0.541c-17.019-12.826-38.519-20.542-61.821-20.542-1.261 0-2.517 0.023-3.768 0.067l0.181-0.005c-0.74-0.018-1.611-0.029-2.484-0.029-23.659 0-45.52 7.694-63.219 20.716l0.295-0.207c-33.886 22.832-75.628 36.444-120.55 36.444-1.224 0-2.447-0.010-3.666-0.030l0.184 0.002c-1.101 0.020-2.4 0.031-3.701 0.031-44.843 0-86.517-13.564-121.144-36.814l0.782 0.494c-16.89-12.832-38.271-20.556-61.456-20.556-1.39 0-2.773 0.028-4.149 0.083l0.198-0.006c-0.703-0.017-1.53-0.026-2.36-0.026-23.657 0-45.517 7.693-63.216 20.714l0.296-0.208c-33.836 22.737-75.494 36.29-120.318 36.29-1.351 0-2.699-0.012-4.044-0.037l0.202 0.003c-1.106 0.020-2.41 0.032-3.717 0.032-44.823 0-86.48-13.552-121.098-36.783l0.783 0.495c-16.921-12.906-38.362-20.678-61.618-20.678-1.333 0-2.66 0.026-3.98 0.076l0.19-0.006v-113.792c0.703-0.008 1.533-0.012 2.364-0.012 45.662 0 88.149 13.593 123.636 36.953l-0.848-0.524c17.019 12.827 38.52 20.543 61.823 20.543 1.272 0 2.539-0.023 3.799-0.069l-0.182 0.005zM948.32 106.688c-1.083 0.019-2.36 0.030-3.639 0.030-44.842 0-86.516-13.564-121.143-36.813l0.782 0.495c-17.019-12.826-38.519-20.542-61.821-20.542-1.261 0-2.517 0.023-3.768 0.067l0.181-0.005c-0.74-0.018-1.611-0.029-2.484-0.029-23.659 0-45.52 7.694-63.219 20.716l0.295-0.207c-33.834 22.734-75.49 36.286-120.312 36.286-1.263 0-2.524-0.011-3.782-0.032l0.189 0.003c-1.003 0.016-2.186 0.026-3.371 0.026-45.191 0-87.22-13.543-122.247-36.792l0.818 0.51c-16.89-12.832-38.271-20.556-61.456-20.556-1.39 0-2.773 0.028-4.149 0.083l0.198-0.006c-1.179-0.049-2.562-0.076-3.952-0.076-23.185 0-44.566 7.725-61.709 20.741l0.253-0.184c-33.886 22.832-75.628 36.444-120.55 36.444-1.224 0-2.447-0.010-3.666-0.030l0.184 0.002c-0.857 0.012-1.868 0.019-2.882 0.019-45.289 0-87.402-13.602-122.475-36.943l0.813 0.509c-16.921-12.906-38.362-20.678-61.618-20.678-1.333 0-2.66 0.026-3.98 0.076l0.19-0.006v-113.792c0.866-0.012 1.889-0.019 2.913-0.019 45.29 0 87.402 13.602 122.476 36.944l-0.813-0.509c17.019 12.826 38.519 20.542 61.821 20.542 1.261 0 2.517-0.023 3.768-0.067l-0.181 0.005c1.069 0.040 2.325 0.062 3.587 0.062 23.302 0 44.803-7.716 62.085-20.732l-0.264 0.19c33.886-22.832 75.628-36.444 120.55-36.444 1.235 0 2.468 0.010 3.699 0.031l-0.185-0.002c0.866-0.012 1.889-0.019 2.913-0.019 45.29 0 87.402 13.602 122.476 36.944l-0.813-0.509c16.89 12.832 38.271 20.556 61.456 20.556 1.39 0 2.773-0.028 4.149-0.083l-0.198 0.006c0.74 0.018 1.611 0.029 2.484 0.029 23.659 0 45.52-7.694 63.219-20.716l-0.295 0.207c35.053-22.832 77.949-36.41 124.016-36.41s88.963 13.579 124.904 36.952l-0.888-0.541c16.89 12.832 38.271 20.556 61.456 20.556 1.39 0 2.773-0.028 4.149-0.083l-0.198 0.006c0.74 0.018 1.611 0.029 2.484 0.029 23.659 0 45.52-7.694 63.219-20.716l-0.295 0.207c33.886-22.832 75.628-36.444 120.55-36.444 1.235 0 2.468 0.010 3.699 0.031l-0.185-0.002v113.792c-1.179-0.049-2.562-0.076-3.952-0.076-23.185 0-44.566 7.725-61.709 20.741l0.253-0.184c-33.875 22.812-75.601 36.413-120.503 36.413-1.241 0-2.479-0.010-3.715-0.031l0.186 0.002zM967.072 817.792c0-78.539-63.669-142.208-142.208-142.208s-142.208 63.669-142.208 142.208c0 78.539 63.669 142.208 142.208 142.208s142.208-63.669 142.208-142.208z" />
<glyph unicode="&#xe92c;" glyph-name="arrow_left" data-tags="arrow_left" horiz-adv-x="632" d="M512-64l-512 512 512 512 119.808-119.808-393.216-392.192 392.192-392.192-118.784-119.808z" />
<glyph unicode="&#xe92d;" glyph-name="arrow_left_fill" data-tags="arrow_left_fill" d="M0 448c0-282.624 229.376-512 512-512s512 229.376 512 512c0 282.624-229.376 512-512 512s-512-229.376-512-512zM289.792 448l275.456 275.456 64.512-64.512-210.944-210.944 210.944-210.944-64.512-64.512-275.456 275.456z" />
<glyph unicode="&#xe92e;" glyph-name="arrow_right" data-tags="arrow_right" horiz-adv-x="632" d="M0 55.808l392.192 392.192-392.192 392.192 119.808 119.808 512-512-512-512-119.808 119.808z" />
<glyph unicode="&#xe92f;" glyph-name="arrow_right_fill" data-tags="arrow_right_fill" d="M512 960c-282.624 0-512-229.376-512-512s229.376-512 512-512 512 229.376 512 512c0 282.624-229.376 512-512 512zM457.728 172.544l-64.512 64.512 211.968 210.944-210.944 210.944 64.512 64.512 275.456-275.456-276.48-275.456z" />
<glyph unicode="&#xe930;" glyph-name="arrow_top" data-tags="arrow_top" d="M575.488-64v779.264l357.376-357.376 91.136 90.112-512 512-512-512 90.112-90.112 357.376 357.376v-779.264h128z" />
<glyph unicode="&#xe931;" glyph-name="briefcase" data-tags="briefcase" horiz-adv-x="1125" d="M972.237-62.875h-819.2c-84.396 0-153.037 68.642-153.037 153.037v512c0 84.396 68.642 153.037 153.037 153.037h818.075c84.396 0 153.037-68.642 153.037-153.037v-512c1.125-84.396-67.516-153.037-151.912-153.037zM153.037 652.8c-28.132 0-50.637-22.505-50.637-50.637v-512c0-28.132 22.505-50.637 50.637-50.637h818.075c28.132 0 50.637 22.505 50.637 50.637v512c0 28.132-22.505 50.637-50.637 50.637h-818.075zM767.437-62.875c-28.132 0-50.637 22.505-50.637 50.637 0 0 0 0 0 0v819.2c0 28.132-22.505 50.637-50.637 50.637h-205.925c-28.132 0-50.637-22.505-50.637-50.637v-818.075c1.125-28.132-21.38-51.763-49.512-52.888s-51.763 21.38-52.888 49.512c0 1.125 0 2.251 0 2.251v819.2c0 84.396 68.642 153.037 153.037 153.037h204.8c84.396 0 153.037-68.642 153.037-153.037v-818.075c0-29.257-22.505-51.763-50.637-51.763 0 0 0 0 0 0z" />
<glyph unicode="&#xe932;" glyph-name="card" data-tags="card" horiz-adv-x="1382" d="M1227.142-64h-1072.367c-85.679 0-154.775 69.096-154.775 154.775v714.451c0 85.679 69.096 154.775 154.775 154.775h1072.367c85.679 0 154.775-69.096 154.775-154.775v-714.451c0-85.679-69.096-154.775-154.775-154.775zM154.775 888.14c-45.603 0-82.915-37.312-82.915-82.915v-714.451c0-45.603 37.312-82.915 82.915-82.915h1072.367c45.603 0 82.915 37.312 82.915 82.915v714.451c0 45.603-37.312 82.915-82.915 82.915h-1072.367zM1345.987 531.606h-1310.057c-19.347 1.382-34.548 19.347-33.166 38.694 1.382 17.965 15.201 31.784 33.166 33.166h1310.057c19.347-1.382 34.548-19.347 33.166-38.694-1.382-17.965-15.201-31.784-33.166-33.166z" />
<glyph unicode="&#xe933;" glyph-name="cart" data-tags="cart" horiz-adv-x="1068" d="M489.472 25.088c0-49.202-39.886-89.088-89.088-89.088s-89.088 39.886-89.088 89.088c0 49.202 39.886 89.088 89.088 89.088s89.088-39.886 89.088-89.088zM979.968 25.088c0-49.202-39.886-89.088-89.088-89.088s-89.088 39.886-89.088 89.088c0 49.202 39.886 89.088 89.088 89.088s89.088-39.886 89.088-89.088zM428.032 203.264c-63.488 0-117.76 45.056-130.048 107.52l-74.752 371.712c0 1.024-1.024 3.072-1.024 4.096l-35.84 184.32h-142.336c-24.576 0-44.032 20.48-44.032 45.056s19.456 44.032 44.032 44.032h178.176c21.504 0 39.936-15.36 44.032-35.84l37.888-186.368h719.872c24.576 0 44.032-19.456 44.032-44.032 0-3.072 0-5.12-1.024-8.192l-71.68-373.76c-13.312-63.488-68.608-108.544-133.12-107.52h-434.176zM321.536 648.704l64.512-320.512c4.096-21.504 22.528-36.864 44.032-35.84h433.152c21.504 0 40.96 14.336 45.056 35.84l61.44 320.512h-648.192z" />
<glyph unicode="&#xe934;" glyph-name="uniE929" data-tags="uniE929" horiz-adv-x="931" d="M791.552-64h-651.264c-76.8 0-139.264 62.464-139.264 139.264v652.288c0 10.24 3.072 19.456 9.216 27.648l139.264 186.368c9.216 11.264 22.528 18.432 36.864 18.432h558.080c14.336 0 28.672-7.168 36.864-18.432l140.288-186.368c6.144-8.192 9.216-17.408 9.216-27.648v-651.264c0-77.824-62.464-140.288-139.264-140.288zM93.184 712.192v-635.904c0-25.6 20.48-46.080 46.080-46.080h651.264c25.6 0 46.080 20.48 46.080 46.080v635.904l-116.736 155.648h-512l-114.688-155.648z" />
<glyph unicode="&#xe935;" glyph-name="uniE92A" data-tags="uniE92A" horiz-adv-x="931" d="M884.736 680.448h-837.632c-25.6 0-46.080 20.48-46.080 46.080s20.48 46.080 46.080 46.080h837.632c25.6 0 46.080-20.48 46.080-46.080s-20.48-46.080-46.080-46.080z" />
<glyph unicode="&#xe936;" glyph-name="uniE92B" data-tags="uniE92B" horiz-adv-x="931" d="M465.92 308.736c-128 0-232.448 104.448-232.448 232.448 0 25.6 20.48 46.080 46.080 46.080s46.080-20.48 46.080-46.080c0-76.8 62.464-139.264 139.264-139.264s139.264 62.464 139.264 139.264c0 25.6 20.48 46.080 46.080 46.080s46.080-20.48 46.080-46.080c0 0 0 0 0 0 2.048-129.024-102.4-232.448-230.4-232.448z" />
<glyph unicode="&#xe937;" glyph-name="check_box" data-tags="check_box" d="M512 960c-282.624 0-512-229.376-512-512s229.376-512 512-512 512 229.376 512 512-229.376 512-512 512zM409.6 192l-256 256 72.704 72.704 183.296-183.296 389.12 388.096 71.68-72.704-460.8-460.8z" />
<glyph unicode="&#xe938;" glyph-name="compare" data-tags="compare" horiz-adv-x="852" d="M638.976 532.992c-23.552 0-43.008 19.456-43.008 43.008 0 11.264 4.096 22.528 12.288 29.696l140.288 140.288-139.264 140.288c-17.408 16.384-18.432 43.008-2.048 60.416s43.008 17.408 60.416 2.048c1.024-1.024 1.024-1.024 2.048-2.048l169.984-171.008c16.384-16.384 16.384-44.032 0-60.416 0 0 0 0 0 0l-169.984-169.984c-8.192-8.192-19.456-12.288-30.72-12.288zM43.008 446.976c-23.552 0-43.008 19.456-43.008 43.008v84.992c0 117.76 95.232 212.992 212.992 212.992h596.992c23.552 0 43.008-19.456 43.008-43.008s-19.456-43.008-43.008-43.008h-596.992c-70.656 0-128-57.344-128-128v-84.992c0-22.528-18.432-41.984-41.984-41.984zM212.992-64c-11.264 0-22.528 4.096-29.696 12.288l-171.008 171.008c-16.384 16.384-16.384 44.032 0 60.416 0 0 0 0 0 0l171.008 169.984c17.408 16.384 44.032 15.36 60.416-2.048 15.36-16.384 15.36-41.984 0-58.368l-140.288-140.288 140.288-140.288c16.384-16.384 16.384-44.032 0-60.416-8.192-8.192-19.456-12.288-30.72-12.288zM638.976 105.984h-595.968c-23.552 0-43.008 19.456-43.008 43.008s19.456 43.008 43.008 43.008h596.992c70.656 0 128 57.344 128 128v84.992c0 23.552 19.456 43.008 43.008 43.008s43.008-19.456 43.008-43.008v-84.992c-2.048-117.76-97.28-212.992-215.040-214.016z" />
<glyph unicode="&#xe939;" glyph-name="quote-left" data-tags="quote-left-solid" d="M928 448h-160v128c0 70.6 57.4 128 128 128h16c26.6 0 48 21.4 48 48v96c0 26.6-21.4 48-48 48h-16c-176.8 0-320-143.2-320-320v-480c0-53 43-96 96-96h256c53 0 96 43 96 96v256c0 53-43 96-96 96zM352 448h-160v128c0 70.6 57.4 128 128 128h16c26.6 0 48 21.4 48 48v96c0 26.6-21.4 48-48 48h-16c-176.8 0-320-143.2-320-320v-480c0-53 43-96 96-96h256c53 0 96 43 96 96v256c0 53-43 96-96 96z" />
<glyph unicode="&#xe93a;" glyph-name="heart-fill" data-tags="heart-solid" d="M924.6 834.8c-109.6 93.4-272.6 76.6-373.2-27.2l-39.4-40.6-39.4 40.6c-100.4 103.8-263.6 120.6-373.2 27.2-125.6-107.2-132.2-299.6-19.8-415.8l387-399.6c25-25.8 65.6-25.8 90.6 0l387 399.6c112.6 116.2 106 308.6-19.6 415.8z" />
<glyph unicode="&#xe93b;" glyph-name="delivery" data-tags="delivery" horiz-adv-x="1229" d="M1215.587 537.187l-151.948 151.948c-6.606 6.606-19.819 13.213-33.032 13.213h-158.555v204.8c0 26.426-19.819 52.852-52.852 52.852h-766.348c-33.032 0-52.852-19.819-52.852-52.852v-667.252c0-26.426 19.819-52.852 52.852-52.852h72.671c-13.213-26.426-19.819-52.852-19.819-79.277 0-99.097 79.277-178.374 178.374-178.374s178.374 79.277 178.374 178.374c0 26.426-6.606 52.852-19.819 79.277h350.142c-13.213-26.426-19.819-52.852-19.819-79.277 0-99.097 79.277-178.374 178.374-178.374s178.374 79.277 178.374 178.374c0 26.426-6.606 52.852-19.819 79.277h72.671c26.426 0 52.852 19.819 52.852 52.852v257.652c-6.606 13.213-13.213 26.426-19.819 39.639zM284.077 35.097c-46.245 0-79.277 33.032-79.277 79.277s33.032 79.277 79.277 79.277 79.277-33.032 79.277-79.277c-6.606-46.245-39.639-79.277-79.277-79.277zM99.097 860.903h673.858v-568.155h-673.858v568.155zM951.329 35.097c-46.245 0-79.277 33.032-79.277 79.277s33.032 79.277 79.277 79.277 79.277-33.032 79.277-79.277c0-46.245-39.639-79.277-79.277-79.277zM1129.703 292.748h-257.652v310.503h132.129l125.523-125.523v-184.981z" />
<glyph unicode="&#xe93c;" glyph-name="faqs" data-tags="faqs" d="M512 957.232c282.292 0 514.768-226.941 514.768-514.768s-226.941-514.768-514.768-514.768-514.768 226.941-514.768 514.768c5.535 287.827 232.476 514.768 514.768 514.768zM512 16.259c238.011 0 431.741 193.73 431.741 431.741s-193.73 431.741-431.741 431.741-431.741-193.73-431.741-431.741c5.535-238.011 193.73-426.205 431.741-431.741zM506.465 326.227c-22.141 0-44.281 16.605-44.281 38.746 0 16.605 11.070 33.211 27.676 38.746 0 0 138.378 49.816 138.378 127.308 0 66.422-55.351 121.773-127.308 121.773-55.351 0-99.632-33.211-116.238-83.027-5.535-22.141-33.211-33.211-55.351-27.676-11.070 16.605-27.676 38.746-16.605 60.886 38.746 110.703 154.984 166.054 265.686 127.308 83.027-27.676 138.378-105.168 138.378-193.73 0-138.378-188.195-204.8-193.73-204.8-5.535-5.535-11.070-5.535-16.605-5.535zM512 171.243v0c-22.141 0-44.281 16.605-44.281 44.281s16.605 44.281 44.281 44.281v0c22.141 0 44.281-16.605 44.281-44.281s-22.141-44.281-44.281-44.281z" />
<glyph unicode="&#xe93d;" glyph-name="map" data-tags="map" horiz-adv-x="856" d="M428.218 960c237.382 0 428.218-190.836 428.218-428.218 0-83.782-23.273-162.909-65.164-232.727-37.236-65.164-83.782-130.327-139.636-186.182-60.509-65.164-125.673-121.018-200.145-172.218-13.964-9.309-37.236-9.309-51.2 0-69.818 51.2-139.636 107.055-200.145 172.218-55.855 55.855-102.4 116.364-139.636 186.182-41.891 69.818-65.164 148.945-65.164 232.727 4.655 237.382 195.491 428.218 432.873 428.218zM428.218 38.4c83.782 60.509 335.127 269.964 335.127 493.382 0 186.182-148.945 335.127-335.127 335.127s-335.127-148.945-335.127-335.127c0-223.418 251.345-428.218 335.127-493.382zM428.218 704c97.745 0 172.218-79.127 172.218-172.218s-79.127-172.218-172.218-172.218-172.218 79.127-172.218 172.218v0c0 97.745 74.473 172.218 172.218 172.218zM428.218 452.655c46.545 0 79.127 37.236 79.127 79.127 0 46.545-37.236 79.127-79.127 79.127-46.545 0-79.127-37.236-79.127-79.127s32.582-79.127 79.127-79.127z" />
<glyph unicode="&#xe93e;" glyph-name="message" data-tags="message" d="M56.889-64c-34.133 0-56.889 22.756-56.889 56.889v807.822c0 91.022 68.267 159.289 159.289 159.289h705.422c91.022 0 159.289-68.267 159.289-159.289v-506.311c0-85.333-68.267-159.289-159.289-159.289h-580.267l-187.733-187.733c-11.378-5.689-22.756-11.378-39.822-11.378zM159.289 846.222c-28.444 0-45.511-17.067-45.511-45.511v-671.289l102.4 102.4c11.378 11.378 22.756 17.067 39.822 17.067h608.711c22.756 0 45.511 17.067 45.511 45.511v506.311c0 28.444-17.067 45.511-45.511 45.511h-705.422z" />
<glyph unicode="&#xe93f;" glyph-name="phone" data-tags="phone" d="M883.2-64c-6.4 0-6.4 0-12.8 0v0c-153.6 19.2-294.4 70.4-422.4 147.2-115.2 76.8-217.6 172.8-294.4 294.4-83.2 128-134.4 275.2-153.6 428.8v0c-6.4 76.8 51.2 147.2 128 153.6 6.4 0 6.4 0 12.8 0h140.8c70.4 0 128-51.2 140.8-121.6v0c6.4-38.4 12.8-83.2 32-121.6 19.2-51.2 6.4-108.8-32-147.2l-38.4-32c51.2-83.2 128-160 211.2-211.2l32 32c38.4 38.4 96 51.2 147.2 32 38.4-12.8 76.8-25.6 121.6-32v0c70.4-12.8 121.6-70.4 121.6-140.8v-140.8c6.4-76.8-57.6-140.8-134.4-140.8 0 0 0 0 0 0v0zM876.8 32v0c25.6 0 51.2 19.2 51.2 44.8 0 0 0 0 0 0v140.8c0 0 0 0 0 0 0 25.6-12.8 44.8-38.4 44.8-51.2 6.4-96 19.2-140.8 38.4-19.2 6.4-32 0-44.8-12.8l-64-57.6c-12.8-12.8-38.4-19.2-57.6-6.4-121.6 70.4-224 172.8-300.8 294.4-6.4 19.2-6.4 44.8 12.8 57.6l57.6 57.6c12.8 12.8 19.2 32 12.8 44.8-19.2 51.2-32 96-38.4 147.2-6.4 19.2-25.6 38.4-44.8 38.4h-147.2c-25.6 0-44.8-25.6-38.4-51.2 12.8-134.4 64-268.8 134.4-384v0c70.4-108.8 160-198.4 262.4-262.4v0c121.6-70.4 249.6-121.6 384-134.4v0z" />
<glyph unicode="&#xe940;" glyph-name="return" data-tags="return" horiz-adv-x="851" d="M42.010 450.626c21.005 0 42.010 15.754 42.010 42.010v84.021c0 73.518 57.764 131.282 131.282 131.282h504.123l-105.026-105.026c-5.251-5.251-10.503-15.754-10.503-26.256 0-21.005 15.754-42.010 36.759-42.010 10.503 0 21.005 5.251 26.256 10.503l173.292 173.292c5.251 5.251 10.503 15.754 10.503 26.256 0 5.251 0 10.503-5.251 15.754v0c0 5.251-5.251 10.503-10.503 15.754l-173.292 173.292c-15.754 15.754-36.759 15.754-52.513 0s-15.754-42.010 0-57.764l105.026-105.026h-504.123c-115.528 0-210.051-94.523-210.051-210.051v-84.021c0-21.005 15.754-42.010 42.010-42.010zM813.949 445.374c-21.005 0-42.010-15.754-42.010-42.010v-84.021c0-73.518-57.764-131.282-131.282-131.282h-504.123l105.026 105.026c15.754 15.754 15.754 36.759 0 52.513s-36.759 15.754-57.764 5.251l-178.544-178.544c0 0 0-5.251-5.251-5.251 0-10.503 0-15.754 0-21.005v0-5.251c0-5.251 0-5.251 0-10.503s5.251-10.503 10.503-15.754l173.292-173.292c5.251-5.251 15.754-10.503 26.256-10.503v0c10.503 0 21.005 5.251 26.256 10.503 15.754 15.754 15.754 42.010 0 57.764l-105.026 105.026h504.123c115.528 0 210.051 94.523 210.051 210.051v84.021c5.251 26.256-10.503 47.262-31.508 47.262z" />
<glyph unicode="&#xe941;" glyph-name="user" data-tags="user" horiz-adv-x="922" d="M870.4-64c-30.72 0-51.2 20.48-51.2 51.2v102.4c0 87.040-66.56 153.6-153.6 153.6h-409.6c-87.040 0-153.6-66.56-153.6-153.6v-102.4c0-30.72-20.48-51.2-51.2-51.2s-51.2 20.48-51.2 51.2v102.4c0 143.36 112.64 256 256 256h409.6c143.36 0 256-112.64 256-256v-102.4c0-30.72-20.48-51.2-51.2-51.2zM460.8 448c-143.36 0-256 112.64-256 256s112.64 256 256 256 256-112.64 256-256c0-143.36-112.64-256-256-256zM460.8 857.6c-87.040 0-153.6-66.56-153.6-153.6s66.56-153.6 153.6-153.6 153.6 66.56 153.6 153.6-66.56 153.6-153.6 153.6z" />
<glyph unicode="&#xe942;" glyph-name="alarmclock" data-tags="alarmclock" horiz-adv-x="1337" d="M1336.482 249.344c0 64.674-26.947 123.958-80.842 161.684l-26.947 150.905h-210.189l-21.558-145.516c-48.505-37.726-80.842-102.4-80.842-161.684 0-64.674 26.947-123.958 80.842-161.684l26.947-150.905h210.189l26.947 150.905c43.116 32.337 75.453 91.621 75.453 156.295zM969.997 249.344c0 86.232 70.063 156.295 156.295 156.295s156.295-70.063 156.295-156.295c0-86.232-70.063-156.295-156.295-156.295s-156.295 70.063-156.295 156.295v0zM140.019 22.986c-5.389 5.389-10.779 5.389-16.168 10.779-10.779 10.779-10.779 32.337 5.389 43.116 0 0 0 0 0 0 26.947 26.947 48.505 48.505 75.453 75.453-86.232 80.842-129.347 199.411-113.179 312.589 10.779 97.011 53.895 183.242 129.347 242.526 150.905 129.347 377.263 113.179 512-32.337s134.737-371.874-5.389-517.389c26.947-26.947 59.284-59.284 86.232-86.232 10.779-10.779 16.168-32.337 5.389-43.116-5.389-5.389-5.389-5.389-10.779-10.779 0 0 0 0 0 0h-16.168c-16.168 16.168-32.337 26.947-48.505 43.116-21.558 21.558-43.116 37.726-59.284 59.284-123.958-91.621-296.421-97.011-425.768-10.779-26.947-26.947-48.505-48.505-75.453-75.453-5.389-5.389-16.168-10.779-21.558-16.168l-21.558 5.389zM463.387 179.281c134.737 0 242.526 107.789 247.916 242.526 5.389 140.126-107.789 253.305-242.526 253.305 0 0-5.389 0-5.389 0-140.126 0-247.916-113.179-247.916-247.916-5.389-140.126 107.789-247.916 247.916-247.916v0zM328.65 923.028l-291.032-291.032c-48.505 75.453-48.505 177.853 10.779 247.916 70.063 86.232 188.632 102.4 280.253 43.116zM910.713 631.997l-291.032 291.032c80.842 53.895 188.632 43.116 258.695-21.558 75.453-70.063 86.232-183.242 32.337-269.474zM409.492 470.312c0 10.779 0 21.558 0 32.337 0 16.168 10.779 32.337 32.337 32.337 0 0 0 0 0 0 16.168 0 32.337-10.779 32.337-32.337 0-16.168 0-26.947 0-43.116 0-5.389 0-10.779 5.389-10.779 26.947-21.558 53.895-43.116 80.842-64.674 16.168-10.779 16.168-26.947 10.779-43.116 0 0 0 0 0 0-10.779-16.168-26.947-16.168-43.116-5.389 0 0 0 0 0 0-32.337 26.947-64.674 48.505-91.621 75.453-10.779 10.779-16.168 21.558-16.168 37.726-10.779 5.389-10.779 16.168-10.779 21.558z" />
<glyph unicode="&#xe943;" glyph-name="avocado" data-tags="avocado" horiz-adv-x="963" d="M895.293 450.513c-13.384 17.314-23.12 37.159-28.621 58.339-5.503 21.182-6.654 43.258-3.387 64.895 7.649 47.092 0.068 95.398-21.639 137.882-21.709 42.484-56.41 76.93-99.054 98.323s-91.003 28.617-138.037 20.618c-47.034-7.998-90.286-30.8-123.462-65.086-34.134 35.311-79.309 57.898-128.039 64.019-0.625 26.718-8.526 52.76-22.852 75.321s-34.535 40.787-58.452 52.716c-7.461 3.107-15.821 3.276-23.402 0.474s-13.82-8.368-17.467-15.581-4.43-15.538-2.193-23.304c2.238-7.766 7.33-14.399 14.256-18.566 13.273-6.635 24.539-16.686 32.641-29.119 8.1-12.433 12.745-26.799 13.451-41.622-57.618-7.987-109.873-38.070-145.715-83.886-35.841-45.818-52.459-103.778-46.341-161.626 6.564-47.038-4.867-94.822-32.009-133.798-45.253-59.386-68.132-132.817-64.62-207.397 3.512-74.578 33.192-145.535 83.825-200.403 5.688-6.324 13.655-10.131 22.15-10.582 8.494-0.449 16.819 2.492 23.144 8.182 6.325 5.687 10.131 13.654 10.581 22.149 0.45 8.493-2.492 16.818-8.18 23.144-40.43 43.915-64.021 100.717-66.598 160.352s16.024 118.262 52.514 165.503c59.537 78.422 43.213 164.848 43.213 196.856 0.128 32.664 10.247 64.506 28.998 91.253 18.751 26.745 45.238 47.112 75.9 58.367s64.037 12.858 95.638 4.594c31.601-8.264 59.918-26 81.146-50.823-16.88-31.844-25.672-67.348-25.606-103.391 0-32.008 15.045-98.908-30.089-157.805-48.63-63.093-71.741-142.17-64.743-221.518 6.998-79.35 43.594-153.162 102.515-206.768-59.605-26.968-127.408-29.497-188.856-7.041-3.981 1.569-8.237 2.322-12.515 2.218s-8.493-1.065-12.392-2.828c-3.901-1.761-7.409-4.286-10.316-7.426-2.907-3.142-5.155-6.834-6.611-10.858s-2.089-8.301-1.864-12.573c0.225-4.274 1.306-8.46 3.177-12.308 1.871-3.85 4.495-7.285 7.717-10.101 3.222-2.818 6.976-4.96 11.039-6.302 43.559-15.849 90.085-21.86 136.241-17.598 46.158 4.262 90.798 18.688 130.718 42.246 45.898-26.986 97.864-41.959 151.083-43.534 60.424-1.667 120.087 13.81 172.081 44.638 51.997 30.829 94.2 75.749 121.727 129.567 27.527 53.815 39.254 114.326 33.823 174.529s-27.8 117.637-64.514 165.659v0zM819.753 72.481c-46.309-45.285-108.057-71.34-172.808-72.917s-127.695 21.441-176.153 64.42c-48.458 42.977-78.828 102.722-84.994 167.199s12.329 128.895 51.763 180.279c37.265 52.060 52.873 116.552 43.532 179.892-2.456 22.665-0.039 45.593 7.086 67.248s18.794 41.54 34.226 58.321c15.434 16.779 34.271 30.069 55.257 38.979 20.984 8.909 43.631 13.233 66.421 12.681 22.792-0.552 45.201-5.967 65.731-15.881s38.703-24.101 53.305-41.609c14.602-17.506 25.295-37.933 31.363-59.908s7.371-44.993 3.824-67.512v0c-4.43-30.288-2.685-61.155 5.126-90.751s21.529-57.303 40.327-81.459c38.136-49.666 56.752-111.585 52.328-174.047s-31.58-121.137-76.335-164.934v0z" />
<glyph unicode="&#xe944;" glyph-name="biscuit" data-tags="biscuit" horiz-adv-x="1044" d="M526.559-62.657c-68.405-2.021-136.524 9.703-200.315 34.484-63.793 24.781-121.961 62.112-171.063 109.783s-88.136 104.712-114.792 167.743c-26.656 63.031-40.39 130.771-40.39 199.207s13.734 136.176 40.39 199.207c26.656 63.029 65.69 120.070 114.792 167.741s107.27 85.002 171.063 109.783c63.791 24.781 131.91 36.507 200.315 34.484 29.979-0.135 59.892-2.827 89.414-8.047 5.81-0.989 11.26-3.493 15.794-7.259 4.536-3.766 7.999-8.662 10.039-14.193s2.587-11.503 1.583-17.313c-1.004-5.81-3.525-11.251-7.301-15.777-31.5-37.56-48.613-85.1-48.282-134.119 0-27.69 5.46-55.108 16.069-80.684 10.611-25.577 26.163-48.808 45.763-68.368 19.599-19.558 42.867-35.060 68.465-45.615s53.027-15.958 80.716-15.899c29.389-0.033 58.452 6.164 85.268 18.186s50.78 29.594 70.31 51.554c3.985 4.264 8.991 7.444 14.543 9.245 5.552 1.798 11.471 2.154 17.199 1.038 5.687-1.268 10.947-3.996 15.258-7.916 4.313-3.92 7.526-8.897 9.331-14.438 26.214-76.859 33.683-158.87 21.785-239.2s-42.822-156.656-90.192-222.614c-47.37-65.96-109.816-119.644-182.135-156.584-72.321-36.938-152.418-56.060-233.626-55.771v1.339zM526.559 892.717c-87.908 0-173.844-26.074-246.931-74.923-73.089-48.849-130.045-118.277-163.666-199.505-33.621-81.226-42.395-170.598-25.213-256.811s59.549-165.394 121.741-227.525c62.194-62.13 141.416-104.417 227.647-121.512 86.231-17.097 175.596-8.233 256.788 25.469 81.191 33.704 150.563 90.73 199.338 163.867s74.764 159.099 74.676 247.007c-0.297 30.056-3.594 60.008-9.837 89.412-41.308-30.083-90.126-48.163-141.064-52.24s-102.011 6.007-147.577 29.137-83.851 58.407-110.625 101.931c-26.774 43.524-40.995 93.604-41.091 144.705-0.1 44.583 10.801 88.5 31.74 127.859l-25.928 3.13zM370.067 328.524c-28.735 0-56.828 8.522-80.72 24.486-23.894 15.966-42.519 38.658-53.516 65.208-10.996 26.548-13.873 55.763-8.268 83.948 5.607 28.185 19.446 54.073 39.766 74.394s46.207 34.159 74.392 39.764c28.185 5.605 57.399 2.73 83.95-8.268 26.548-10.998 49.24-29.62 65.206-53.514s24.486-51.984 24.486-80.722c-0.117-38.498-15.464-75.385-42.686-102.609-27.222-27.222-64.109-42.568-102.609-42.686zM370.067 552.055c-15.473 0-30.601-4.588-43.467-13.185-12.866-8.595-22.893-20.814-28.813-35.111-5.923-14.295-7.471-30.026-4.452-45.203s10.469-29.116 21.41-40.057c10.942-10.942 24.883-18.393 40.059-21.412 15.178-3.019 30.908-1.468 45.203 4.452s26.513 15.948 35.109 28.815c8.598 12.866 13.189 27.992 13.189 43.465 0 20.75-8.243 40.649-22.915 55.321-14.674 14.672-34.572 22.915-55.323 22.915v0zM638.31 149.701c-19.894 0-39.344 5.898-55.886 16.951s-29.434 26.763-37.046 45.144c-7.614 18.379-9.607 38.605-5.726 58.116 3.881 19.513 13.462 37.435 27.529 51.503s31.992 23.648 51.503 27.529c19.513 3.881 39.737 1.89 58.118-5.724 18.381-7.612 34.091-20.505 45.144-37.046 11.053-16.544 16.953-35.99 16.953-55.886 0-26.677-10.6-52.263-29.465-71.127s-44.448-29.46-71.125-29.46v0zM638.31 283.818c-6.631 0-13.115-1.966-18.629-5.65s-9.812-8.921-12.349-15.049c-2.54-6.126-3.201-12.868-1.909-19.372 1.294-6.502 4.487-12.478 9.177-17.166 4.69-4.69 10.662-7.883 17.166-9.177s13.246-0.631 19.372 1.907c6.128 2.54 11.364 6.836 15.049 12.349 3.684 5.515 5.652 11.997 5.652 18.629 0 8.892-3.533 17.42-9.82 23.71-6.289 6.287-14.817 9.82-23.71 9.82v0z" />
<glyph unicode="&#xe945;" glyph-name="bread" data-tags="bread" horiz-adv-x="1280" d="M665.836-45.266h-490.615c-9.759 0-19.118 3.876-26.019 10.775-6.901 6.902-10.777 16.261-10.777 26.020v444.004c-38.401 21.089-71.020 51.305-94.978 87.982-23.959 36.68-38.52 78.689-42.399 122.327s3.044 87.56 20.157 127.889c17.113 40.329 43.891 75.825 77.97 103.356 95.67 77.517 193.794 82.914 321.353 82.914s228.134-5.888 322.332-81.933c34.038-27.604 60.751-63.164 77.788-103.54 17.034-40.376 23.867-84.325 19.891-127.968-3.978-43.643-18.639-85.632-42.691-122.266-24.054-36.634-56.755-66.78-95.219-87.78v-444.004c0.2-4.931-0.607-9.853-2.371-14.461-1.766-4.611-4.454-8.812-7.898-12.347s-7.572-6.331-12.134-8.218c-4.559-1.887-9.459-2.821-14.392-2.749v0zM212.017 28.324h417.021v429.289c0.018 6.92 2.015 13.688 5.752 19.512s9.060 10.458 15.345 13.358c31.877 13.652 59.569 35.512 80.251 63.35 20.685 27.835 33.62 60.657 37.496 95.119 3.676 32.259-0.876 64.922-13.228 94.947-12.355 30.025-32.108 56.434-57.421 76.766-75.556 60.836-158.469 65.742-276.216 65.742s-200.17-4.906-275.724-65.742c-25.407-20.385-45.25-46.861-57.687-76.967s-17.065-62.867-13.453-95.238c3.875-34.463 16.813-67.284 37.496-95.119 20.683-27.837 48.374-49.695 80.252-63.35 6.229-2.921 11.484-7.575 15.139-13.404s5.552-12.588 5.466-19.466l-0.489-428.797zM1107.402-45.266h-441.551v73.101h404.756v429.286c0.141 6.83 2.132 13.494 5.76 19.282 3.63 5.788 8.758 10.486 14.845 13.588 31.26 14.021 58.307 35.981 78.446 63.695 20.142 27.715 32.676 60.221 36.357 94.282 3.571 32.184-0.876 64.75-12.946 94.797s-31.388 56.639-56.23 77.409c-78.989 66.233-221.266 66.233-268.365 66.233h-398.871v73.592h398.871c92.726 0 226.171-8.831 314.972-82.423 33.336-27.975 59.425-63.586 76.050-103.805s23.296-83.858 19.443-127.206c-3.853-43.348-18.117-85.125-41.574-121.779-23.457-36.657-55.419-67.105-93.166-88.763v-444.006c0.131-4.89-0.727-9.756-2.522-14.308-1.797-4.552-4.493-8.694-7.931-12.178-3.436-3.482-7.542-6.234-12.070-8.090-4.526-1.856-9.382-2.778-14.275-2.708v0zM273.359 629.327c27.095 0 49.062 21.965 49.062 49.062 0 27.095-21.967 49.060-49.062 49.060s-49.061-21.966-49.061-49.060c0-27.098 21.966-49.062 49.061-49.062zM567.726 678.387c27.098 0 49.062 21.965 49.062 49.061s-21.965 49.061-49.062 49.061c-27.095 0-49.060-21.966-49.060-49.061s21.965-49.061 49.060-49.061zM469.606 433.083c27.095 0 49.060 21.965 49.060 49.060 0 27.098-21.965 49.062-49.060 49.062-27.098 0-49.062-21.965-49.062-49.062 0-27.095 21.965-49.060 49.062-49.060zM371.482 187.773c27.095 0 49.062 21.967 49.062 49.062s-21.967 49.060-49.062 49.060c-27.095 0-49.062-21.965-49.062-49.060s21.967-49.062 49.062-49.062z" />
<glyph unicode="&#xe946;" glyph-name="cake" data-tags="cake" horiz-adv-x="1106" d="M866.937-47.608h-648.821c-26.828 0-52.558 10.658-71.528 29.628s-29.628 44.698-29.628 71.526v205.079h61.642v-204.683c0-11.108 4.413-21.762 12.268-29.616 7.855-7.856 18.507-12.268 29.618-12.268h647.24c11.078 0.102 21.672 4.549 29.503 12.382 7.834 7.832 12.28 18.426 12.382 29.501v205.079h59.271v-205.079c0.053-13.384-2.552-26.644-7.662-39.016-5.11-12.37-12.622-23.603-22.104-33.049s-20.746-16.914-33.137-21.977c-12.39-5.061-25.661-7.614-39.045-7.508v0zM938.459 228.989h-790.281c-39.299 0-76.989 15.612-104.777 43.401s-43.401 65.479-43.401 104.778c0 39.299 15.612 76.988 43.401 104.778s65.478 43.399 104.777 43.399h790.281c39.301 0 76.99-15.61 104.78-43.399 27.787-27.789 43.399-65.479 43.399-104.778s-15.612-76.988-43.399-104.778c-27.789-27.789-65.479-43.401-104.78-43.401v0zM148.178 466.074c-23.579 0-46.193-9.366-62.866-26.040-16.673-16.673-26.040-39.287-26.040-62.865 0-23.581 9.367-46.193 26.040-62.867s39.287-26.040 62.866-26.040h790.281c23.581 0 46.195 9.368 62.867 26.040 16.673 16.675 26.040 39.287 26.040 62.867s-9.368 46.193-26.040 62.865c-16.673 16.675-39.287 26.040-62.867 26.040h-790.281zM424.78 732.791c21.821 0 39.514 17.693 39.514 39.515s-17.693 39.514-39.514 39.514c-21.823 0-39.514-17.691-39.514-39.514s17.691-39.515 39.514-39.515zM543.316 772.308c21.823 0 39.514 17.691 39.514 39.514s-17.691 39.514-39.514 39.514c-21.821 0-39.514-17.691-39.514-39.514s17.693-39.514 39.514-39.514zM661.858 732.791c21.823 0 39.514 17.693 39.514 39.515s-17.691 39.514-39.514 39.514c-21.821 0-39.514-17.691-39.514-39.514s17.693-39.515 39.514-39.515zM938.443 466.074c-7.86 0-15.397 3.123-20.955 8.679-5.558 5.558-8.681 13.097-8.681 20.957v48.996c0 94.319-37.466 184.775-104.159 251.467s-157.149 104.161-251.468 104.161h-18.967c-94.317 0-184.773-37.468-251.466-104.161s-104.161-157.148-104.161-251.467v-48.996c0-7.86-3.122-15.399-8.68-20.957-5.558-5.556-13.096-8.679-20.956-8.679s-15.398 3.123-20.956 8.679c-5.558 5.558-8.68 13.097-8.68 20.957v48.996c0.104 110.043 43.838 215.554 121.612 293.402 77.775 77.849 183.245 121.682 293.286 121.891h18.967c110.18 0 215.853-43.741 293.798-121.612s121.786-183.501 121.891-293.681v-48.996c-0.051-3.944-0.879-7.84-2.435-11.463-1.559-3.625-3.813-6.906-6.638-9.658s-6.167-4.919-9.83-6.382c-3.664-1.46-7.578-2.185-11.522-2.134v0z" />
<glyph unicode="&#xe947;" glyph-name="camaramic" data-tags="camaramic" horiz-adv-x="1910" d="M1610.367-62.983c-14.525 0-36.312 14.525-36.312 36.312v355.858c0 14.525 14.525 36.312 36.312 36.312h145.248v58.099c0 152.511-123.461 275.972-275.972 275.972s-275.972-123.461-275.972-275.972v-58.099h145.248c14.525 0 36.312-14.525 36.312-36.312v-355.858c0-14.525-14.525-36.312-36.312-36.312h-130.723c-94.411 0-167.035 72.624-167.035 167.035v312.284c0 239.66 196.085 428.482 435.745 428.482 232.397 0 421.22-188.823 428.482-428.482v-312.284c0-94.411-72.624-167.035-167.035-167.035h-137.986zM571.842 576.109c-101.674 0-181.56-79.887-181.56-181.56s79.887-181.56 181.56-181.56 181.56 79.887 181.56 181.56v0c0 94.411-87.149 181.56-181.56 181.56zM927.7 89.527v326.809c0 152.511 72.624 290.496 196.085 377.645-21.787 29.050-58.099 50.837-94.411 50.837h-181.56l-101.674 116.199h-341.333l-101.674-116.199h-181.56c-65.362 0-116.199-50.837-116.199-116.199v-682.667c0-65.362 50.837-116.199 116.199-116.199h893.277c-58.099 43.574-87.149 101.674-87.149 159.773zM571.842 104.052c-159.773 0-283.234 130.723-283.234 283.234s130.723 283.234 283.234 283.234c159.773 0 283.234-130.723 283.234-283.234s-130.723-283.234-283.234-283.234c0 0 0 0 0 0v0z" />
<glyph unicode="&#xe948;" glyph-name="car3" data-tags="car3" horiz-adv-x="1150" d="M1017.976 893.741c-12.047 42.165-48.188 66.259-90.353 66.259h-704.753c-42.165 0-78.306-24.094-90.353-66.259l-132.518-379.482v-512c0-36.141 30.118-66.259 66.259-66.259h66.259c36.141 0 66.259 30.118 66.259 66.259v66.259h771.012v-66.259c0-36.141 30.118-66.259 66.259-66.259h66.259c36.141 0 66.259 30.118 66.259 66.259v512l-150.588 379.482zM222.871 255.247c-54.212 0-96.376 42.165-96.376 96.376s42.165 96.376 96.376 96.376 96.376-42.165 96.376-96.376v0c0-54.212-42.165-96.376-96.376-96.376 0 0 0 0 0 0zM927.624 255.247c-54.212 0-96.376 42.165-96.376 96.376s42.165 96.376 96.376 96.376c54.212 0 96.376-42.165 96.376-96.376 0 0 0 0 0 0 0-54.212-42.165-96.376-96.376-96.376 0 0 0 0 0 0v0zM126.494 574.494l96.376 289.129h704.753l96.376-289.129h-897.506z" />
<glyph unicode="&#xe949;" glyph-name="cart4" data-tags="cart4" horiz-adv-x="911" d="M179.2-64h558.080c97.28 0 179.2 81.92 179.2 179.2v527.36c0 15.36-15.36 30.72-30.72 30.72h-189.44v46.080c0 128-107.52 235.52-235.52 235.52s-235.52-107.52-235.52-235.52v0-46.080h-189.44c-15.36 0-30.72-15.36-30.72-30.72v-532.48c-5.12-92.16 76.8-174.080 174.080-174.080zM281.6 724.48c0 97.28 81.92 174.080 174.080 168.96 92.16 0 168.96-76.8 168.96-168.96v-46.080h-348.16l5.12 46.080zM61.44 611.84h158.72v-76.8c0-15.36 15.36-30.72 30.72-30.72s30.72 15.36 30.72 30.72v76.8h348.16v-76.8c0-15.36 15.36-30.72 30.72-30.72s30.72 15.36 30.72 30.72v76.8h158.72v-501.76c0-61.44-51.2-112.64-112.64-112.64h-558.080c-61.44 0-112.64 51.2-112.64 112.64l-5.12 501.76z" />
<glyph unicode="&#xe94a;" glyph-name="cart6" data-tags="cart6" horiz-adv-x="983" d="M487.629 569.924h97.553v146.295h146.295v97.485h-146.364v146.295h-97.485v-146.295h-146.295v-97.485h146.295zM292.591 131.038c-53.877 0-97.553-43.676-97.553-97.553s43.676-97.553 97.553-97.553c53.877 0 97.553 43.676 97.553 97.553v0c0 0.041 0 0.089 0 0.137 0 53.802-43.615 97.417-97.417 97.417-0.048 0-0.096 0-0.144 0h0.007zM780.22 131.038c-53.877 0-97.553-43.676-97.553-97.553s43.676-97.553 97.553-97.553c53.877 0 97.553 43.676 97.553 97.553v0c0 0.041 0 0.089 0 0.137 0 53.802-43.615 97.417-97.417 97.417-0.048 0-0.096 0-0.144 0h0.007zM300.851 289.553l1.434 5.871 43.895 79.462h363.247c0.089 0 0.195 0 0.301 0 36.431 0 68.175 20.068 84.78 49.754l0.252 0.491 188.279 341.743-84.855 46.831h-0.478l-53.658-97.553-134.554-243.78h-342.289l-6.349 13.175-109.227 230.673-46.353 97.485-45.807 97.553h-159.471v-97.553h97.553l175.514-370.074-65.809-119.467c-7.686-13.349-12.221-29.356-12.221-46.421 0-0.144 0-0.288 0.001-0.432v0.022c0.155-53.815 43.738-97.398 97.538-97.553h585.129v97.553h-564.634c-6.718 0.076-12.144 5.502-12.22 12.212v0.007z" />
<glyph unicode="&#xe94b;" glyph-name="chicken" data-tags="chicken" horiz-adv-x="1138" d="M652.302 92.513c-21.242-0.692-42.412 2.86-62.266 10.449-19.852 7.589-37.993 19.062-53.36 33.749-73.4 73.4-54.063 212.309 43.015 309.389 29.632 32.691 67.092 57.303 108.86 71.525s86.467 17.583 129.889 9.767l96.684 96.684c-4.938 15.173-5.598 31.414-1.907 46.94 3.689 15.524 11.585 29.732 22.822 41.062 16.828 16.134 39.237 25.143 62.55 25.143 23.311 0 45.72-9.009 62.548-25.143l50.906-50.909c16.484-16.564 25.737-38.983 25.737-62.35s-9.252-45.786-25.737-62.352c-11.237-11.38-25.425-19.404-40.971-23.167-15.544-3.764-31.83-3.12-47.031 1.859l-96.684-96.684c7.455-43.154 3.875-87.491-10.406-128.89-14.284-41.397-38.803-78.511-71.282-107.886-50.231-53.983-119.696-86.023-193.368-89.186zM770.69 474.117c-57.301-3.27-111.204-28.246-150.746-69.848-73.796-74.19-93.132-175.216-43.015-225.726 50.117-50.513 151.536-30.784 225.332 43.406 58.8 58.407 84.057 138.122 62.35 194.157-2.107 5.341-2.596 11.182-1.402 16.798 1.192 5.614 4.014 10.752 8.112 14.773l123.913 123.913c4.829 4.749 11.123 7.726 17.859 8.442s13.515-0.867 19.235-4.496c5.418-3.862 12.019-5.703 18.653-5.197 6.636 0.503 12.882 3.32 17.654 7.96 4.854 5.427 7.537 12.452 7.537 19.731s-2.683 14.304-7.537 19.731l-50.906 50.906c-5.466 4.774-12.477 7.407-19.731 7.407-7.257 0-14.268-2.633-19.731-7.407-4.442-4.877-7.125-11.1-7.625-17.677-0.501-6.579 1.211-13.135 4.863-18.628 3.821-5.63 5.557-12.415 4.908-19.187-0.649-6.774-3.641-13.107-8.461-17.909l-123.913-123.913c-4.11-4.087-9.316-6.895-14.989-8.087-5.673-1.19-11.569-0.71-16.976 1.379-13.865 5.919-28.733 9.132-43.804 9.471h-1.579zM901.693-44.417h-818.852c-11.842-0.014-23.554 2.478-34.367 7.307-10.813 4.826-20.483 11.885-28.378 20.712-7.646 8.549-13.337 18.662-16.677 29.635s-4.247 22.542-2.66 33.901c15.082 119.806 73.346 229.995 163.868 309.91 90.522 79.918 207.087 124.068 327.837 124.179 38.664-0.107 77.189-4.608 114.836-13.417 7.641-1.832 14.24-6.624 18.348-13.321s5.386-14.752 3.554-22.394c-1.832-7.639-6.622-14.24-13.321-18.348-6.697-4.107-14.752-5.384-22.391-3.552-59.601 14.165-121.517 15.629-181.719 4.289s-117.344-35.226-167.708-70.103c-50.362-34.877-92.819-79.968-124.607-132.337-31.788-52.367-52.196-110.84-59.896-171.616-0.525-3.065-0.374-6.208 0.444-9.207s2.283-5.784 4.291-8.158c2.369-2.537 5.244-4.551 8.438-5.91s6.638-2.034 10.109-1.982h818.852c3.482-0.13 6.95 0.51 10.156 1.873 3.206 1.365 6.071 3.42 8.392 6.019 2.15 2.294 3.736 5.059 4.626 8.074 0.892 3.015 1.063 6.196 0.503 9.291-8.718 68.46-33.46 133.898-72.217 190.999-4.037 6.29-5.507 13.885-4.114 21.226 1.395 7.341 5.55 13.867 11.612 18.236 6.385 3.812 13.961 5.113 21.251 3.657 7.293-1.459 13.783-5.575 18.211-11.548 43.973-64.781 72.090-138.995 82.084-216.651 1.42-11.476 0.435-23.124-2.895-34.199-3.329-11.073-8.929-21.333-16.443-30.124-7.896-8.29-17.383-14.903-27.891-19.445-10.511-4.544-21.827-6.925-33.275-6.997v0zM476.699 624.865c-4.685 0.046-9.296 1.172-13.471 3.295-4.176 2.121-7.803 5.181-10.602 8.938-59.59 78.925-31.571 127.858-11.050 162.585s28.413 48.145-10.654 97.868c-4.697 6.22-6.788 14.023-5.83 21.757s4.888 14.792 10.959 19.678c6.007 4.292 13.419 6.15 20.742 5.198 7.32-0.952 14.011-4.643 18.721-10.328 63.929-81.688 35.517-129.437 14.996-164.559s-28.413-48.145 7.894-97.079c4.565-6.365 6.463-14.261 5.282-22.005-1.179-7.744-5.341-14.716-11.596-19.431-4.444-3.432-9.794-5.489-15.39-5.919v0zM316.063 624.865c-4.628 0.048-9.182 1.176-13.294 3.302-4.112 2.123-7.669 5.184-10.383 8.932-59.984 78.928-31.965 127.86-11.444 162.587 20.519 34.727 28.806 48.145-10.26 97.868-2.719 3.020-4.785 6.566-6.073 10.42s-1.768 7.93-1.411 11.977c0.357 4.047 1.543 7.977 3.484 11.546s4.597 6.701 7.801 9.199c3.204 2.498 6.888 4.309 10.823 5.322s8.035 1.204 12.047 0.562c4.012-0.641 7.848-2.101 11.271-4.29 3.425-2.188 6.36-5.058 8.624-8.43 63.932-81.688 35.517-129.437 14.602-164.559s-28.413-48.145 7.892-97.078c2.332-3.111 4.030-6.649 4.995-10.413 0.965-3.766 1.179-7.685 0.628-11.533s-1.852-7.548-3.832-10.893c-1.98-3.345-4.601-6.265-7.71-8.597-5.136-3.818-11.36-5.891-17.758-5.921v0z" />
<glyph unicode="&#xe94c;" glyph-name="clipboard" data-tags="clipboard" horiz-adv-x="922" d="M819.2 857.6h-215.040c-27.307 78.507-116.053 122.88-194.56 92.16-44.373-13.653-78.507-47.787-92.16-92.16h-215.040c-58.027 0-102.4-44.373-102.4-102.4v-716.8c0-58.027 44.373-102.4 102.4-102.4h716.8c58.027 0 102.4 44.373 102.4 102.4v716.8c0 58.027-44.373 102.4-102.4 102.4zM460.8 857.6c27.307 0 51.2-23.893 51.2-51.2s-23.893-51.2-51.2-51.2c-27.307 0-51.2 23.893-51.2 51.2s23.893 51.2 51.2 51.2zM665.6 243.2h-204.8v-153.6l-256 256 256 256v-153.6h204.8v-204.8z" />
<glyph unicode="&#xe94d;" glyph-name="compare5" data-tags="compare5" horiz-adv-x="858" d="M39.896 448c26.597 0 39.896 19.948 39.896 39.896v86.442c0 73.143 59.844 126.338 126.338 126.338h492.052l-86.442-93.091c-19.948-19.948-19.948-46.545 0-66.494 6.649-6.649 19.948-13.299 33.247-13.299s19.948 6.649 33.247 13.299l172.883 172.883c6.649 6.649 6.649 6.649 6.649 13.299 0 0 0 6.649 0 6.649s0 6.649 0 6.649c0 0 0 6.649 0 6.649s0 6.649 0 6.649-6.649 13.299-6.649 13.299l-172.883 172.883c-19.948 19.948-46.545 19.948-59.844 0-19.948-19.948-19.948-46.545 0-59.844l99.74-99.74h-505.351c-119.688 6.649-212.779-86.442-212.779-206.13v-86.442c0-19.948 19.948-39.896 39.896-39.896zM811.221 448c-26.597 0-46.545-19.948-46.545-39.896v-86.442c0-73.143-59.844-126.338-126.338-126.338h-492.052l99.74 99.74c19.948 19.948 19.948 46.545 0 59.844s-46.545 13.299-59.844-6.649l-172.883-172.883c-6.649-6.649-6.649-6.649-6.649-13.299-6.649 0-6.649-6.649-6.649-13.299s0-13.299 6.649-19.948c0-6.649 6.649-6.649 6.649-13.299l172.883-172.883c6.649-6.649 19.948-13.299 33.247-13.299s19.948 6.649 33.247 13.299c19.948 19.948 19.948 46.545 0 59.844l-99.74 99.74h492.052c119.688 0 212.779 93.091 212.779 212.779v86.442c0 26.597-19.948 46.545-46.545 46.545z" />
<glyph unicode="&#xe94e;" glyph-name="home2" data-tags="home2" horiz-adv-x="1205" d="M481.882-64v361.412h240.941v-361.412h301.176v481.882h180.706l-602.353 542.118-602.353-542.118h180.706v-481.882h301.176z" />
<glyph unicode="&#xe94f;" glyph-name="imac" data-tags="imac" horiz-adv-x="1252" d="M1137.778 960h-1024c-62.578 0-113.778-51.2-113.778-113.778v-682.667c0-62.578 51.2-113.778 113.778-113.778h284.444v-113.778h455.111v113.778h284.444c62.578 0 113.778 51.2 113.778 113.778v682.667c0 62.578-51.2 113.778-113.778 113.778zM1137.778 163.556h-1024v682.667h1024v-682.667z" />
<glyph unicode="&#xe950;" glyph-name="laptop" data-tags="laptop" horiz-adv-x="1446" d="M1325.176 56.471v903.529h-1204.706v-903.529h-120.471v-120.471h1445.647v120.471h-120.471zM843.294 56.471h-240.941v60.235h240.941v-60.235zM1204.706 237.176h-963.765v602.353h963.765v-602.353z" />
<glyph unicode="&#xe951;" glyph-name="location-3" data-tags="location-3" horiz-adv-x="816" d="M406.756 958.578c-224.711 0-406.756-182.044-406.756-406.756 0-136.533 65.422-281.6 196.267-429.511 59.733-65.422 122.311-128 193.422-182.044 11.378-8.533 22.756-8.533 34.133 0 71.111 54.044 136.533 113.778 193.422 182.044 130.844 147.911 196.267 292.978 196.267 429.511 2.844 224.711-179.2 406.756-406.756 406.756zM406.756 2.844c-71.111 56.889-349.867 292.978-349.867 548.978 0 193.422 156.444 349.867 349.867 349.867s349.867-156.444 349.867-349.867c0-256-275.911-492.089-349.867-548.978zM406.756 745.244c-88.178 0-159.289-71.111-159.289-159.289s71.111-159.289 159.289-159.289 162.133 71.111 162.133 159.289v0c0 88.178-73.956 159.289-162.133 159.289zM406.756 483.556c-56.889 0-102.4 45.511-102.4 102.4s45.511 102.4 102.4 102.4c56.889 0 102.4-45.511 102.4-102.4 0 0 0 0 0 0 0-56.889-45.511-102.4-102.4-102.4z" />
<glyph unicode="&#xe952;" glyph-name="lovetag" data-tags="lovetag" d="M993.28 468.48l-460.8 460.8c-17.067 20.48-44.373 30.72-71.68 30.72h-358.4c-58.027 0-102.4-44.373-102.4-102.4v-358.4c0-27.307 10.24-54.613 30.72-71.68l460.8-460.8c20.48-20.48 44.373-30.72 71.68-30.72s54.613 10.24 71.68 30.72l358.4 358.4c20.48 20.48 30.72 44.373 30.72 71.68s-10.24 54.613-30.72 71.68zM180.907 704c-44.373 0-78.507 34.133-78.507 75.093s34.133 78.507 78.507 78.507 78.507-34.133 78.507-78.507c-3.413-40.96-37.547-75.093-78.507-75.093 0 0 0 0 0 0zM781.653 280.747l-218.453-218.453-218.453 218.453c-51.2 51.2-51.2 129.707 0 180.907 23.893 23.893 58.027 37.547 88.747 37.547 34.133 0 68.267-13.653 92.16-37.547l37.547-37.547 37.547 37.547c51.2 47.787 133.12 47.787 180.907-3.413 47.787-47.787 47.787-126.293 0-177.493v0z" />
<glyph unicode="&#xe953;" glyph-name="milk" data-tags="milk" horiz-adv-x="783" d="M446.978-58.581h-417.020c-7.913 0.102-15.473 3.293-21.069 8.889s-8.786 13.155-8.889 21.068v583.588c0.103 7.915 3.293 15.474 8.889 21.070s13.156 8.784 21.069 8.889h417.020c7.913-0.104 15.472-3.293 21.068-8.889s8.786-13.155 8.889-21.070v-583.588c-0.102-7.913-3.293-15.472-8.889-21.068s-13.155-8.786-21.068-8.889v0zM59.916 1.335h357.103v523.672h-357.103v-523.672zM738.551-58.581h-291.593c-7.945 0-15.565 3.156-21.183 8.774-5.62 5.618-8.774 13.238-8.774 21.183v583.588c0 7.947 3.154 15.565 8.774 21.183 5.618 5.618 13.238 8.776 21.183 8.776h291.593c7.947 0 15.567-3.158 21.185-8.776s8.774-13.236 8.774-21.183v-583.588c0-7.945-3.156-15.565-8.774-21.183s-13.238-8.774-21.185-8.774zM476.917 1.335h231.677v523.672h-231.677v-523.672zM446.98 525.007c-5.188 0.183-10.24 1.709-14.659 4.431-4.421 2.723-8.057 6.546-10.555 11.097-2.496 4.552-3.767 9.674-3.688 14.864s1.504 10.27 4.136 14.744l119.834 204.914h-340.327l-146.195-236.869c-4.464-6.092-11.064-10.27-18.478-11.704-7.414-1.432-15.096-0.012-21.508 3.978-6.412 3.988-11.081 10.25-13.073 17.534-1.992 7.282-1.16 15.051 2.33 21.747l154.584 250.051c2.642 4.414 6.39 8.063 10.873 10.585s9.547 3.831 14.691 3.796h407.032c5.299 0.068 10.515-1.309 15.091-3.984 4.574-2.674 8.333-6.545 10.874-11.195 2.751-4.511 4.208-9.694 4.208-14.979s-1.458-10.467-4.208-14.979l-144.998-250.85c-2.851-4.225-6.73-7.652-11.274-9.959-4.542-2.307-9.599-3.415-14.689-3.223v0zM738.545 525.005c-5.184 0.006-10.274 1.373-14.762 3.967-4.486 2.594-8.212 6.323-10.804 10.81l-146.595 250.052c-3.684 6.767-4.62 14.695-2.61 22.133 2.008 7.439 6.805 13.817 13.394 17.811 6.746 3.786 14.705 4.779 22.175 2.762 7.467-2.016 13.848-6.88 17.769-13.547l146.597-250.052c2.68-4.562 4.104-9.75 4.13-15.039 0.024-5.291-1.353-10.493-3.99-15.079s-6.443-8.389-11.027-11.027c-4.586-2.638-9.788-4.016-15.077-3.992l0.799 1.199zM591.976 775.057c-7.913 0.104-15.472 3.293-21.070 8.889-5.596 5.596-8.784 13.156-8.889 21.069v95.068h-347.515v-95.068c0-7.945-3.156-15.566-8.774-21.184s-13.238-8.774-21.184-8.774c-7.945 0-15.566 3.156-21.184 8.774s-8.774 13.239-8.774 21.184v125.026c0 7.945 3.156 15.566 8.774 21.184s13.239 8.774 21.184 8.774h407.432c7.945 0 15.565-3.156 21.183-8.774 5.62-5.618 8.776-13.238 8.776-21.184v-125.026c0-7.945-3.156-15.566-8.776-21.184-5.618-5.618-13.238-8.774-21.183-8.774v0z" />
<glyph unicode="&#xe954;" glyph-name="minitrack" data-tags="minitrack" horiz-adv-x="1408" d="M1217.829 704h-193.829v256h-896c-69.486 0-128-58.514-128-128v-705.829h128c0-106.057 87.771-193.829 193.829-193.829s193.829 87.771 193.829 193.829h384c0-106.057 87.771-193.829 193.829-193.829s193.829 87.771 193.829 193.829h128v321.829l-197.486 256zM321.829 31.086c-51.2 0-95.086 43.886-95.086 95.086s43.886 95.086 95.086 95.086 95.086-43.886 95.086-95.086c0-51.2-43.886-95.086-95.086-95.086 0 0 0 0 0 0zM1184.914 608.914l124.343-160.914h-285.257v160.914h160.914zM1089.829 31.086c-51.2 0-95.086 43.886-95.086 95.086s43.886 95.086 95.086 95.086c51.2 0 95.086-43.886 95.086-95.086s-43.886-95.086-95.086-95.086c0 0 0 0 0 0z" />
<glyph unicode="&#xe955;" glyph-name="offer" data-tags="offer" horiz-adv-x="1062" d="M1005.134 560.493c-17.605 20.539-26.407 46.946-23.473 73.352l2.934 23.473c11.736 73.352-38.143 143.771-111.496 155.507l-23.473 2.934c-26.407 5.868-49.88 20.539-61.616 44.011l-11.736 20.539c-35.209 64.55-114.43 90.957-181.914 58.682l-23.473-11.736c-23.473-11.736-52.814-11.736-76.287 0l-23.473 11.736c-67.484 32.275-146.705 5.868-181.914-58.682l-11.736-20.539c-11.736-23.473-35.209-41.077-61.616-44.011l-23.473-2.934c-73.352-11.736-123.232-82.155-111.496-155.507l2.934-23.473c2.934-26.407-5.868-52.814-23.473-73.352l-17.605-17.605c-55.748-52.814-55.748-137.903-2.934-190.716l17.605-17.605c17.605-20.539 26.407-46.946 23.473-73.352l-2.934-23.473c-11.736-73.352 38.143-143.771 111.496-155.507l23.473-2.934c26.407-5.868 49.88-20.539 61.616-44.011l11.736-20.539c35.209-64.55 114.43-90.957 181.914-58.682l23.473 11.736c23.473 11.736 52.814 11.736 76.287 0l23.473-11.736c67.484-32.275 146.705-5.868 181.914 58.682l11.736 20.539c11.736 23.473 35.209 41.077 61.616 44.011l23.473 2.934c73.352 11.736 123.232 82.155 111.496 155.507l-2.934 23.473c-2.934 26.407 5.868 52.814 23.473 73.352l17.605 17.605c52.814 52.814 52.814 137.903 0 190.716l-14.67 17.605zM987.529 387.382l-17.605-17.605c-29.341-29.341-44.011-73.352-38.143-114.43l2.934-23.473c5.868-46.946-26.407-90.957-70.418-99.759l-23.473-2.934c-41.077-5.868-79.221-32.275-96.825-70.418l-11.736-20.539c-23.473-41.077-73.352-58.682-117.364-38.143l-23.473 11.736c-38.143 17.605-82.155 17.605-120.298 0l-23.473-11.736c-44.011-20.539-93.891-2.934-117.364 38.143l-11.736 20.539c-20.539 38.143-55.748 64.55-96.825 70.418l-23.473 2.934c-46.946 8.802-79.221 52.814-70.418 99.759l2.934 23.473c5.868 41.077-8.802 85.089-38.143 114.43l-17.605 17.605c-32.275 35.209-32.275 88.023 0 123.232l17.605 17.605c29.341 29.341 44.011 73.352 38.143 114.43l-5.868 23.473c-5.868 46.946 26.407 90.957 70.418 99.759l23.473 2.934c41.077 5.868 79.221 32.275 96.825 70.418l11.736 20.539c14.67 29.341 44.011 46.946 76.287 46.946 14.67 0 26.407-2.934 38.143-8.802l23.473-11.736c38.143-17.605 82.155-17.605 120.298 0l23.473 11.736c44.011 20.539 93.891 2.934 117.364-38.143l11.736-20.539c20.539-38.143 55.748-64.55 96.825-70.418l23.473-2.934c46.946-8.802 79.221-52.814 70.418-99.759l-2.934-23.473c-5.868-41.077 8.802-85.089 38.143-114.43l17.605-17.605c38.143-35.209 38.143-90.957 5.868-123.232v0zM729.329 645.582c-8.802 8.802-26.407 8.802-35.209 0l-360.894-360.894c-11.736-8.802-11.736-23.473-2.934-35.209s23.473-11.736 35.209-2.934c0 0 0 0 2.934 2.934l360.894 360.894c11.736 11.736 11.736 26.407 0 35.209v0zM430.051 513.548c58.682 0 105.628 46.946 105.628 105.628s-46.946 105.628-105.628 105.628-105.628-46.946-105.628-105.628c0-29.341 11.736-55.748 32.275-76.287 17.605-17.605 44.011-29.341 73.352-29.341zM388.973 660.253c20.539 20.539 58.682 20.539 79.221 0s20.539-58.682 0-79.221c-20.539-20.539-58.682-20.539-79.221 0-11.736 11.736-17.605 23.473-17.605 38.143 2.934 14.67 8.802 29.341 17.605 41.077v0zM559.151 352.172c-41.077-41.077-41.077-108.562 0-149.639s108.562-41.077 149.639 0c20.539 20.539 32.275 46.946 32.275 76.287 0 58.682-46.946 105.628-105.628 105.628-29.341-2.934-58.682-14.67-76.287-32.275zM673.581 234.808c-20.539-20.539-58.682-20.539-79.221 0s-20.539 58.682 0 79.221c20.539 20.539 58.682 20.539 79.221 0 11.736-11.736 17.605-23.473 17.605-38.143-2.934-14.67-8.802-29.341-17.605-41.077z" />
<glyph unicode="&#xe956;" glyph-name="office" data-tags="office" horiz-adv-x="1138" d="M566.212 731.106v228.894h-566.212v-1024h1138.447v795.106h-572.235zM228.894 50.447h-114.447v114.447h114.447v-114.447zM228.894 279.341h-114.447v114.447h114.447v-114.447zM228.894 502.212h-114.447v114.447h114.447v-114.447zM228.894 731.106h-114.447v114.447h114.447v-114.447zM457.788 50.447h-114.447v114.447h114.447v-114.447zM457.788 279.341h-114.447v114.447h114.447v-114.447zM457.788 502.212h-114.447v114.447h114.447v-114.447zM457.788 731.106h-114.447v114.447h114.447v-114.447zM1024 50.447h-457.788v114.447h114.447v114.447h-114.447v114.447h114.447v108.424h-114.447v114.447h457.788v-566.212zM909.553 502.212h-114.447v-114.447h114.447v114.447zM909.553 279.341h-114.447v-114.447h114.447v114.447z" />
<glyph unicode="&#xe957;" glyph-name="security" data-tags="security" horiz-adv-x="836" d="M419.84 960l-419.84-187.733v-279.893c0-256 177.493-498.347 419.84-556.373 238.933 58.027 419.84 300.373 419.84 559.787v276.48l-419.84 187.733zM324.267 215.893l-187.733 187.733 68.267 64.853 119.467-122.88 307.2 307.2 64.853-64.853-372.053-372.053z" />
<glyph unicode="&#xe958;" glyph-name="tea" data-tags="tea" horiz-adv-x="1004" d="M391.539 23.888h-13.621c-100.153 0-196.212 39.756-267.072 110.533-70.86 70.779-110.729 166.791-110.845 266.945v94.919c0.114 8.706 3.623 17.023 9.779 23.179s14.473 9.665 23.179 9.779h703.102c8.741 0 17.123-3.473 23.304-9.654s9.652-14.563 9.652-23.304v-95.359c-0.117-100.037-39.936-195.936-110.715-266.631-70.777-70.697-166.724-110.406-266.762-110.406v0zM65.916 463.325v-61.96c0.232-82.637 33.193-161.815 91.667-220.205 58.473-58.393 137.698-91.24 220.335-91.357h13.621c82.52 0.117 161.634 32.918 220.025 91.228 58.393 58.309 91.304 137.376 91.537 219.894v62.401h-637.185zM736.059-64h-703.102c-8.741 0-17.124 3.473-23.305 9.654s-9.653 14.563-9.653 23.304c0 8.741 3.472 17.123 9.653 23.304s14.564 9.654 23.305 9.654h703.102c8.741 0 17.123-3.473 23.304-9.654s9.652-14.563 9.652-23.304c0-8.741-3.471-17.123-9.652-23.304s-14.563-9.654-23.304-9.654v0zM827.904 199.664h-135.786c-8.741 0-17.123 3.471-23.304 9.652s-9.654 14.563-9.654 23.304c0 8.741 3.473 17.125 9.654 23.306s14.563 9.652 23.304 9.652h135.786c25.098 0 49.175 9.939 66.963 27.646 17.787 17.705 27.838 41.736 27.955 66.832v8.35c0 25.174-10 49.318-27.8 67.117-17.801 17.801-41.945 27.802-67.119 27.802h-91.843c-8.741 0-17.123 3.473-23.304 9.654s-9.654 14.563-9.654 23.304c0 8.741 3.473 17.123 9.654 23.304s14.563 9.654 23.304 9.654h91.843c42.621-0.117 83.462-17.099 113.601-47.237 30.136-30.136 47.118-70.978 47.233-113.598v-8.35c-0.115-42.58-17.111-83.374-47.262-113.443-30.149-30.067-70.992-46.95-113.572-46.95v0zM459.661 609.657c-5.124-0.035-10.181 1.141-14.764 3.432-4.581 2.29-8.557 5.632-11.602 9.751-65.036 87.888-34.716 139.301-12.304 175.775s30.761 51.414-10.985 104.586c-2.683 3.405-4.671 7.305-5.847 11.477-1.178 4.172-1.52 8.536-1.010 12.841s1.864 8.467 3.983 12.249c2.118 3.782 4.96 7.11 8.366 9.794 3.404 2.683 7.303 4.669 11.477 5.846 4.172 1.176 8.536 1.519 12.841 1.009s8.466-1.863 12.249-3.982c3.781-2.119 7.111-4.961 9.794-8.366 69.431-87.888 38.23-141.060 15.819-178.851s-30.321-51.414 8.35-104.146c4.682-6.795 6.605-15.114 5.382-23.273-1.225-8.159-5.505-15.548-11.975-20.67-5.607-4.567-12.548-7.188-19.773-7.471v0zM286.521 609.657c-5.128-0.072-10.199 1.090-14.787 3.383s-8.559 5.652-11.579 9.798c-65.037 87.888-34.716 139.303-12.304 175.776s30.321 51.414-11.426 104.586c-3.295 3.356-5.847 7.37-7.483 11.78s-2.322 9.115-2.015 13.809c0.307 4.694 1.604 9.269 3.803 13.427s5.251 7.805 8.956 10.701c3.707 2.896 7.983 4.977 12.55 6.107 4.565 1.129 9.318 1.281 13.947 0.445 4.631-0.835 9.030-2.639 12.913-5.293 3.885-2.654 7.164-6.098 9.624-10.108 69.431-87.888 38.23-141.060 15.819-178.851s-30.321-51.415 8.35-104.147c4.682-6.793 6.605-15.114 5.382-23.273-1.225-8.159-5.505-15.548-11.975-20.67-5.638-4.512-12.558-7.125-19.773-7.469v0z" />
<glyph unicode="&#xe959;" glyph-name="user3" data-tags="user3" horiz-adv-x="911" d="M680.96 734.72c0 128-102.4 225.28-225.28 225.28s-225.28-102.4-225.28-225.28c0-128 102.4-225.28 225.28-225.28v0c122.88-5.12 225.28 97.28 225.28 225.28zM291.84 734.72c0 92.16 71.68 163.84 163.84 163.84s163.84-71.68 163.84-163.84-71.68-163.84-163.84-163.84v0c-92.16 0-163.84 71.68-163.84 163.84zM0 69.12v-102.4c0-20.48 15.36-30.72 30.72-30.72h844.8c20.48 0 30.72 15.36 30.72 30.72v102.4c0 194.56-158.72 353.28-353.28 353.28h-204.8c-189.44 0-348.16-158.72-348.16-353.28zM353.28 355.84h204.8c158.72 0 286.72-128 286.72-286.72v-71.68h-778.24v71.68c0 158.72 128 286.72 286.72 286.72v0z" />
<glyph unicode="&#xe95a;" glyph-name="view" data-tags="view" horiz-adv-x="1373" d="M1365.333 466.156c-7.262 21.787-246.922 493.844-675.404 493.844-435.745 0-675.404-472.057-682.667-493.844-7.262-7.262-7.262-29.050 0-36.312 7.262-21.787 246.922-493.844 682.667-493.844s668.142 472.057 682.667 493.844c0 7.262 0 29.050-7.262 36.312zM689.929 30.411c-326.809 0-537.418 326.809-588.255 421.22 50.837 87.149 261.447 413.957 588.255 413.957s537.418-326.809 588.255-421.22c-58.099-87.149-268.709-413.957-588.255-413.957zM682.667 669.504c-116.199 0-217.872-101.674-217.872-217.872s101.674-225.135 225.135-225.135c123.461 0 217.872 101.674 217.872 225.135s-101.674 217.872-225.135 217.872zM682.667 320.908c-65.362 0-123.461 58.099-123.461 130.723s58.099 130.723 130.723 130.723c72.624 0 123.461-58.099 123.461-130.723s-58.099-130.723-130.723-130.723z" />
<glyph unicode="&#xe95b;" glyph-name="watchtab" data-tags="watchtab" horiz-adv-x="1410" d="M126.494 833.506h1150.494v126.494h-1150.494c-66.259 0-126.494-60.235-126.494-126.494v-771.012c0-66.259 60.235-126.494 126.494-126.494h259.012v126.494h-259.012v771.012zM771.012 448h-259.012v-114.447c-78.306-72.282-84.329-186.729-18.071-265.035 6.024-6.024 12.047-12.047 18.071-18.071v-114.447h259.012v114.447c78.306 72.282 84.329 186.729 18.071 265.035-6.024 6.024-12.047 12.047-18.071 18.071v114.447zM638.494 98.635c-54.212 0-96.376 42.165-96.376 96.376s42.165 96.376 96.376 96.376 96.376-42.165 96.376-96.376v0c0-54.212-42.165-96.376-96.376-96.376 0 0 0 0 0 0zM1343.247 700.988h-385.506c-36.141 0-60.235-30.118-66.259-66.259v-638.494c0-36.141 30.118-60.235 66.259-66.259h385.506c36.141 0 60.235 30.118 66.259 66.259v644.518c-6.024 36.141-30.118 60.235-66.259 60.235zM1283.012 62.494h-259.012v512h259.012v-512z" />
<glyph unicode="&#xe95c;" glyph-name="bag-solid" data-tags="bag" d="M896 665.6c-4.267 21.333-21.333 38.4-42.667 38.4h-128v42.667c0 119.467-93.867 213.333-213.333 213.333s-213.333-93.867-213.333-213.333v-42.667h-128c-21.333 0-38.4-17.067-42.667-38.4l-85.333-682.667c0-12.8 4.267-25.6 8.533-34.133 8.533-8.533 21.333-12.8 34.133-12.8h853.333c12.8 0 25.6 4.267 34.133 12.8s12.8 21.333 8.533 34.133l-85.333 682.667zM384 746.667c0 72.533 55.467 128 128 128s128-55.467 128-128v-42.667h-256v42.667zM132.267 21.333l76.8 597.333h89.6v-85.333c0-25.6 17.067-42.667 42.667-42.667s42.667 17.067 42.667 42.667v85.333h256v-85.333c0-25.6 17.067-42.667 42.667-42.667s42.667 17.067 42.667 42.667v85.333h89.6l76.8-597.333h-759.467z" />
<glyph unicode="&#xe95d;" glyph-name="bag-alt" data-tags="bag-shopping" horiz-adv-x="896" d="M832 640h-144v80c0 132.34-107.6 240-240 240s-240-107.66-240-240v-80h-144c-35.34 0-64-28.6-64-64v-480c0-88.4 71.64-160 160-160h576c88.36 0 160 71.64 160 160v480c0 35.4-28.6 64-64 64zM304 720c0 79.4 64.6 144 144 144s144-64.6 144-144v-80h-288v80zM256 464c-26.4 0-48 21.4-48 48s21.6 48 48 48 48-21.6 48-48-21.4-48-48-48zM640 464c-26.5 0-48 21.5-48 48s21.6 48 48 48 48-21.6 48-48-21.4-48-48-48z" />
<glyph unicode="&#xe95e;" glyph-name="circle" data-tags="circle" d="M512 944c-274 0-496-222-496-496s222-496 496-496 496 222 496 496-222 496-496 496z" />
<glyph unicode="&#xe95f;" glyph-name="comment" data-tags="comment" d="M512 896c-282.8 0-512-186.2-512-416 0-95.2 39.8-182.4 105.8-252.6-29.8-78.8-91.8-145.6-92.8-146.4-13.2-14-16.8-34.4-9.2-52s25-29 44.2-29c123 0 220 51.4 278.2 92.6 57.8-18.2 120.2-28.6 185.8-28.6 282.8 0 512 186.2 512 416s-229.2 416-512 416zM512 160c-53.4 0-106.2 8.2-156.8 24.2l-45.4 14.4-39-27.6c-28.6-20.2-67.8-42.8-115-58 14.6 24.2 28.8 51.4 39.8 80.4l21.2 56.2-41.2 43.6c-36.2 38.6-79.6 102.4-79.6 186.8 0 176.4 186.6 320 416 320s416-143.6 416-320-186.6-320-416-320z" />
<glyph unicode="&#xe960;" glyph-name="envelope-open" data-tags="envelope-open" d="M1024 32c0-53.020-42.98-96-96-96h-832c-53.020 0-96 42.98-96 96v526.552c0 30.578 14.297 57.817 36.571 75.397l0.203 0.155c49.826 39.058 91.002 70.73 328.4 243.022 33.65 24.534 100.42 83.568 146.826 82.868 46.396 0.708 113.192-58.344 146.826-82.866 237.374-172.274 278.606-203.99 328.4-243.024 22.477-17.735 36.774-44.974 36.774-75.552v0-526.552zM892.668 425.21c-5.126 7.456-15.4 9.19-22.678 3.814-45.69-33.746-110.924-81.41-211.164-154.158-33.65-24.532-100.42-83.562-146.826-82.86-46.422-0.688-113.118 58.286-146.826 82.86-100.228 72.74-165.468 120.408-211.164 154.158-7.278 5.376-17.552 3.642-22.678-3.814l-18.144-26.392c-1.763-2.534-2.817-5.677-2.817-9.065 0-5.257 2.536-9.923 6.452-12.838l0.043-0.030c45.774-33.798 110.908-81.38 210.606-153.736 40.548-29.562 113.048-95.626 184.528-95.146 71.448-0.484 143.922 65.542 184.526 95.146 99.7 72.358 164.836 119.94 210.606 153.736 3.958 2.946 6.495 7.611 6.495 12.869 0 3.389-1.054 6.531-2.851 9.118l0.035-0.053-18.142 26.392z" />
<glyph unicode="&#xe961;" glyph-name="facebook" data-tags="facebook" horiz-adv-x="640" d="M558.28 384l28.44 185.32h-177.82v120.26c0 50.7 24.84 100.12 104.48 100.12h80.84v157.78s-73.36 12.52-143.5 12.52c-146.44 0-242.16-88.76-242.16-249.44v-141.24h-162.78v-185.32h162.78v-448h200.34v448z" />
<glyph unicode="&#xe962;" glyph-name="headphones-alt" data-tags="headphones-alt" d="M320 384h-32c-70.7 0-128-57.4-128-128.24v-127.52c0-70.82 57.3-128.24 128-128.24h32c35.34 0 64 28.72 64 64.12v255.76c0 35.42-28.66 64.12-64 64.12zM736 384h-32c-35.34 0-64-28.7-64-64.12v-255.76c0-35.4 28.66-64.12 64-64.12h32c70.7 0 128 57.42 128 128.24v127.52c0 70.82-57.3 128.24-128 128.24zM512 896c-286.18 0-502.86-238.26-512-512v-224c0-17.68 14.32-32 32-32h32c17.68 0 32 14.32 32 32v224c0 229.34 186.66 415.6 416 415.64 229.34-0.040 416-186.3 416-415.64v-224c0-17.68 14.32-32 32-32h32c17.68 0 32 14.32 32 32v224c-9.14 273.74-225.82 512-512 512z" />
<glyph unicode="&#xe963;" glyph-name="instagram" data-tags="instagram" horiz-adv-x="896" d="M448.2 678c-127.2 0-229.8-102.6-229.8-229.8s102.6-229.8 229.8-229.8 229.8 102.6 229.8 229.8-102.6 229.8-229.8 229.8zM448.2 298.8c-82.2 0-149.4 67-149.4 149.4s67 149.4 149.4 149.4 149.4-67 149.4-149.4-67.2-149.4-149.4-149.4zM741 687.4c0-29.8-24-53.6-53.6-53.6-29.8 0-53.6 24-53.6 53.6s24 53.6 53.6 53.6 53.6-24 53.6-53.6zM893.2 633c-3.4 71.8-19.8 135.4-72.4 187.8-52.4 52.4-116 68.8-187.8 72.4-74 4.2-295.8 4.2-369.8 0-71.6-3.4-135.2-19.8-187.8-72.2s-68.8-116-72.4-187.8c-4.2-74-4.2-295.8 0-369.8 3.4-71.8 19.8-135.4 72.4-187.8s116-68.8 187.8-72.4c74-4.2 295.8-4.2 369.8 0 71.8 3.4 135.4 19.8 187.8 72.4 52.4 52.4 68.8 116 72.4 187.8 4.2 74 4.2 295.6 0 369.6zM797.6 184c-15.6-39.2-45.8-69.4-85.2-85.2-59-23.4-199-18-264.2-18s-205.4-5.2-264.2 18c-39.2 15.6-69.4 45.8-85.2 85.2-23.4 59-18 199-18 264.2s-5.2 205.4 18 264.2c15.6 39.2 45.8 69.4 85.2 85.2 59 23.4 199 18 264.2 18s205.4 5.2 264.2-18c39.2-15.6 69.4-45.8 85.2-85.2 23.4-59 18-199 18-264.2s5.4-205.4-18-264.2z" />
<glyph unicode="&#xe964;" glyph-name="linkedin" data-tags="linkedin" horiz-adv-x="896" d="M200.56 64h-185.76v598.2h185.76zM107.58 743.8c-59.4 0-107.58 49.2-107.58 108.6 0 59.415 48.165 107.58 107.58 107.58s107.58-48.165 107.58-107.58v0c0-59.4-48.2-108.6-107.58-108.6zM895.8 64h-185.36v291.2c0 69.4-1.4 158.4-96.58 158.4-96.58 0-111.38-75.4-111.38-153.4v-296.2h-185.56v598.2h178.16v-81.6h2.6c24.8 47 85.38 96.6 175.76 96.6 188 0 222.56-123.8 222.56-284.6v-328.6z" />
<glyph unicode="&#xe965;" glyph-name="long-arrow" data-tags="long_add" d="M1022.264 467.092l-182.237 182.237c-10.414 10.414-26.034 10.414-36.447 0s-10.414-26.034 0-36.447l137.112-137.112h-914.658c-13.885-1.736-26.034-13.885-26.034-27.769s12.149-26.034 26.034-26.034h914.658l-137.112-137.112c-10.414-10.414-10.414-26.034 0-36.447 5.207-5.207 12.149-6.942 19.092-6.942s13.885 1.736 19.092 6.942l182.237 182.237c8.678 8.678 8.678 26.034-1.736 36.447z" />
<glyph unicode="&#xe966;" glyph-name="minus" data-tags="minus" d="M966.656 407.040h-925.696c-24.576 0-40.96 16.384-40.96 40.96s16.384 40.96 40.96 40.96h925.696c24.576 0 40.96-16.384 40.96-40.96s-16.384-40.96-40.96-40.96z" />
<glyph unicode="&#xe967;" glyph-name="pinterest" data-tags="pinterest" horiz-adv-x="768" d="M408 947c-205.2 0-408-136.8-408-358.2 0-140.8 79.2-220.8 127.2-220.8 19.8 0 31.2 55.2 31.2 70.8 0 18.6-47.4 58.2-47.4 135.6 0 160.8 122.4 274.8 280.8 274.8 136.2 0 237-77.4 237-219.6 0-106.2-42.6-305.4-180.6-305.4-49.8 0-92.4 36-92.4 87.6 0 75.6 52.8 148.8 52.8 226.8 0 132.4-187.8 108.4-187.8-51.6 0-33.6 4.2-70.8 19.2-101.4-27.6-118.8-84-295.8-84-418.2 0-37.8 5.4-75 9-112.8 6.8-7.6 3.4-6.8 13.8-3 100.8 138 97.2 165 142.8 345.6 24.6-46.8 88.2-72 138.6-72 212.4 0 307.8 207 307.8 393.6 0 198.6-171.6 328.2-360 328.2z" />
<glyph unicode="&#xe968;" glyph-name="reddit" data-tags="reddit" d="M880.6 553c-30 0-56.4-12.4-75.8-31.8-71.4 49.4-167.6 81.2-274.2 84.6l55.4 249.6 176.4-39.6c0-43.2 35.2-78.4 78.4-78.4 44 0 79.4 36.2 79.4 79.4s-35.2 79.4-79.4 79.4c-30.8 0-57.4-18.6-70.6-44l-194.8 43.2c-9.8 2.6-19.4-4.4-22-14.2l-60.8-275.2c-105.8-4.4-201-36.2-272.6-85.6-19.4 20.2-46.8 32.6-76.8 32.6-111.2 0-147.6-149.2-45.8-200.2-3.6-15.8-5.2-32.6-5.2-49.4 0-167.6 188.8-303.4 420.6-303.4 232.8 0 421.6 135.8 421.6 303.4 0 16.8-1.8 34.4-6.2 50.2 99.8 51.2 63 199.4-47.6 199.4zM258.8 342.2c0 44 35.2 79.4 79.4 79.4 43.2 0 78.4-35.2 78.4-79.4 0-43.2-35.2-78.4-78.4-78.4-44-0.2-79.4 35.2-79.4 78.4zM687.4 155.2c-72.8-72.8-278.2-72.8-351 0-8 7-8 19.4 0 27.4 7 7 19.4 7 26.4 0 55.6-57 240-58 298 0 7 7 19.4 7 26.4 0 8.2-8 8.2-20.4 0.2-27.4zM685.8 263.6c-43.2 0-78.4 35.2-78.4 78.4 0 44 35.2 79.4 78.4 79.4 44 0 79.4-35.2 79.4-79.4-0.2-43-35.4-78.4-79.4-78.4z" />
<glyph unicode="&#xe969;" glyph-name="tiktok" data-tags="tiktok" horiz-adv-x="896" d="M896 540.18c-0.299-0.001-0.652-0.001-1.005-0.001-91.768 0-176.664 29.423-245.768 79.349l1.233-0.848v-357.44c-0.068-179.496-145.594-324.981-325.1-324.981-179.548 0-325.1 145.552-325.1 325.1s145.552 325.1 325.1 325.1c15.745 0 31.228-1.119 46.375-3.283l-1.735 0.203v-179.78c-13.386 4.362-28.789 6.877-44.78 6.877-82.423 0-149.24-66.817-149.24-149.24s66.817-149.24 149.24-149.24c82.423 0 149.24 66.817 149.24 149.24 0 0.001 0 0.002 0 0.004v0 698.76h176c-0.005-0.592-0.008-1.292-0.008-1.993 0-14.966 1.356-29.615 3.953-43.83l-0.225 1.484c12.99-67.689 52.414-124.345 106.88-159.865l0.94-0.575c37.691-25.239 84.063-40.28 133.949-40.28 0.018 0 0.036 0 0.054 0h-0.003z" />
<glyph unicode="&#xe96a;" glyph-name="twitter" data-tags="twitter" d="M918.74 656.568c0.65-9.096 0.65-18.194 0.65-27.29 0-277.44-211.166-597.116-597.116-597.116-118.904 0-229.36 34.438-322.274 94.212 16.894-1.948 33.136-2.598 50.68-2.598 98.11 0 188.426 33.136 260.548 89.664-92.264 1.95-169.584 62.376-196.224 145.544 12.996-1.948 25.99-3.248 39.636-3.248 18.842 0 37.686 2.6 55.228 7.146-96.162 19.494-168.286 103.96-168.286 205.97v2.598c27.938-15.594 60.428-25.34 94.862-26.638-56.528 37.686-93.562 102.010-93.562 174.782 0 38.984 10.394 74.72 28.588 105.908 103.31-127.35 258.6-210.516 432.73-219.614-3.248 15.594-5.198 31.836-5.198 48.080 0 115.656 93.564 209.868 209.868 209.868 60.426 0 115.004-25.34 153.34-66.274 47.43 9.096 92.912 26.64 133.198 50.68-15.596-48.732-48.732-89.666-92.264-115.654 42.234 4.546 83.168 16.244 120.852 32.486-28.584-41.582-64.322-78.616-105.256-108.506z" />
<glyph unicode="&#xe96b;" glyph-name="plus" data-tags="add" d="M982.374 489.626h-428.748v428.748c0 24.976-16.65 41.626-41.626 41.626s-41.626-16.65-41.626-41.626v-428.748h-428.748c-24.976 0-41.626-16.65-41.626-41.626s16.65-41.626 41.626-41.626h428.748v-428.748c0-24.976 16.65-41.626 41.626-41.626s41.626 16.65 41.626 41.626v428.748h428.748c24.976 0 41.626 16.65 41.626 41.626s-16.65 41.626-41.626 41.626z" />
</font>
</defs>
</svg>
