<svg xmlns="http://www.w3.org/2000/svg" width="50" height="50" viewBox="0 0 50 50"><g id="Group_2505" data-name="Group 2505" transform="translate(-1242 -65)"><g id="Ellipse_168" data-name="Ellipse 168" transform="translate(1242 65)" fill="#fff" stroke="#f2f2f2" stroke-width="2"><circle cx="25" cy="25" r="25" stroke="none"></circle><circle cx="25" cy="25" r="24" fill="none"></circle></g><g id="Group_1500" data-name="Group 1500" transform="translate(1255 78)"><g id="Group_1497" data-name="Group 1497"><path id="Path_2892" data-name="Path 2892" d="M19,23H5a3,3,0,0,1-3-3V6a1,1,0,0,1,.2-.6l3-4A1,1,0,0,1,6,1H18a1,1,0,0,1,.8.4l3,4A1,1,0,0,1,22,6V20A3,3,0,0,1,19,23ZM4,6.333V20a1,1,0,0,0,1,1H19a1,1,0,0,0,1-1V6.333L17.5,3H6.5Z" fill="#3e3e3e"></path></g><g id="Group_1498" data-name="Group 1498"><path id="Path_2893" data-name="Path 2893" d="M21,7H3A1,1,0,0,1,3,5H21a1,1,0,0,1,0,2Z" fill="#3e3e3e"></path></g><g id="Group_1499" data-name="Group 1499"><path id="Path_2894" data-name="Path 2894" d="M12,15a5.006,5.006,0,0,1-5-5,1,1,0,0,1,2,0,3,3,0,0,0,6,0,1,1,0,0,1,2,0A5.006,5.006,0,0,1,12,15Z" fill="#3e3e3e"></path></g></g></g></svg>