<svg xmlns="http://www.w3.org/2000/svg" width="28.677" height="36" viewBox="0 0 28.677 36"><g transform="translate(-22 -14.85)"><path d="M36.339,14.85A14.354,14.354,0,0,0,22,29.189c0,4.814,2.325,9.9,6.913,15.112a46.319,46.319,0,0,0,6.826,6.355,1.02,1.02,0,0,0,1.2,0A46.318,46.318,0,0,0,43.764,44.3c4.588-5.213,6.913-10.3,6.913-15.112A14.354,14.354,0,0,0,36.339,14.85Zm0,33.685c-2.545-2.018-12.29-10.324-12.29-19.347a12.29,12.29,0,0,1,24.58,0C48.629,38.212,38.884,46.518,36.339,48.535Z" fill="#1187ff"></path><path d="M44.633,29.5a5.633,5.633,0,1,0,5.633,5.633A5.636,5.636,0,0,0,44.633,29.5Zm0,9.218a3.585,3.585,0,1,1,3.585-3.585A3.589,3.589,0,0,1,44.633,38.718Z" transform="translate(-8.294 -7.148)" fill="#f70"></path></g></svg>