<svg xmlns="http://www.w3.org/2000/svg" width="36.22" height="34.909" viewBox="0 0 36.22 34.909"><g transform="translate(-7.443 -8.984)"><path d="M41.745,22.561a2.969,2.969,0,0,1-.813-2.5l.119-.843a4.676,4.676,0,0,0-3.838-5.285l-.838-.149a2.976,2.976,0,0,1-2.128-1.545l-.4-.749a4.675,4.675,0,0,0-6.213-2.017l-.766.37a2.975,2.975,0,0,1-2.63,0l-.762-.374a4.678,4.678,0,0,0-6.213,2.017l-.4.749a2.973,2.973,0,0,1-2.128,1.545l-.838.149a4.676,4.676,0,0,0-3.838,5.285l.119.843a2.969,2.969,0,0,1-.813,2.5l-.592.609a4.673,4.673,0,0,0,0,6.532l.592.613a2.969,2.969,0,0,1,.813,2.5l-.119.843A4.676,4.676,0,0,0,13.9,38.94l.838.149a2.976,2.976,0,0,1,2.128,1.545l.4.749A4.675,4.675,0,0,0,23.476,43.4l.762-.366a2.975,2.975,0,0,1,2.63,0l.762.374a4.678,4.678,0,0,0,6.213-2.017l.4-.749A2.973,2.973,0,0,1,36.37,39.1l.838-.149a4.676,4.676,0,0,0,3.838-5.285l-.119-.843a2.969,2.969,0,0,1,.813-2.5l.592-.609a4.673,4.673,0,0,0,0-6.532Zm-.634,5.962-.592.609a4.674,4.674,0,0,0-1.277,3.924l.119.843a2.981,2.981,0,0,1-2.447,3.37l-.838.149a4.654,4.654,0,0,0-3.336,2.426l-.4.749a2.985,2.985,0,0,1-3.962,1.289l-.762-.374a4.66,4.66,0,0,0-4.128,0l-.762.374a2.981,2.981,0,0,1-3.962-1.289l-.4-.749a4.67,4.67,0,0,0-3.336-2.426l-.838-.149a2.981,2.981,0,0,1-2.447-3.37l.119-.843a4.657,4.657,0,0,0-1.277-3.924l-.592-.613a2.98,2.98,0,0,1,0-4.166l.592-.609a4.674,4.674,0,0,0,1.277-3.924l-.119-.843a2.981,2.981,0,0,1,2.447-3.37l.838-.149a4.654,4.654,0,0,0,3.336-2.426l.4-.749a2.981,2.981,0,0,1,2.638-1.6,3.023,3.023,0,0,1,1.323.306l.762.374a4.66,4.66,0,0,0,4.128,0l.762-.374a2.981,2.981,0,0,1,3.962,1.289l.4.749a4.67,4.67,0,0,0,3.336,2.426l.838.149a2.981,2.981,0,0,1,2.447,3.37l-.119.843a4.656,4.656,0,0,0,1.277,3.924l.592.613a2.98,2.98,0,0,1,0,4.166Z" transform="translate(0 0)" fill="#1187ff"></path><path d="M47.295,33.754a.853.853,0,0,0-1.2,0L33.754,46.09a.85.85,0,1,0,1.2,1.2L47.291,34.958a.849.849,0,0,0,0-1.2Z" transform="translate(-14.972 -14.086)" fill="#2dcc6e"></path><path d="M36.987,34.949a3.618,3.618,0,1,0-2.558-1.06A3.6,3.6,0,0,0,36.987,34.949Zm-1.353-4.97a1.911,1.911,0,1,1-.562,1.353A1.908,1.908,0,0,1,35.634,29.978Z" transform="translate(-14.894 -10.762)" fill="#2dcc6e"></path><path d="M50.694,56.35a3.617,3.617,0,1,0,6.175,2.558,3.617,3.617,0,0,0-6.175-2.558ZM54.6,60.26a1.911,1.911,0,1,1,.562-1.353A1.919,1.919,0,0,1,54.6,60.26Z" transform="translate(-24.239 -26.601)" fill="#2dcc6e"></path></g></svg>