<svg xmlns="http://www.w3.org/2000/svg" width="18" height="20" viewBox="0 0 18 20"><g id="Group_1513" data-name="Group 1513" transform="translate(-3 -2)"><g id="Group_1511" data-name="Group 1511"><path id="Path_2898" data-name="Path 2898" d="M20,22a1,1,0,0,1-1-1V19a3,3,0,0,0-3-3H8a3,3,0,0,0-3,3v2a1,1,0,0,1-2,0V19a5.006,5.006,0,0,1,5-5h8a5.006,5.006,0,0,1,5,5v2A1,1,0,0,1,20,22Z" fill="#3e3e3e"></path></g><g id="Group_1512" data-name="Group 1512"><path id="Path_2899" data-name="Path 2899" d="M12,12a5,5,0,1,1,5-5A5.006,5.006,0,0,1,12,12Zm0-8a3,3,0,1,0,3,3A3,3,0,0,0,12,4Z" fill="#3e3e3e"></path></g></g></svg>